<?xml version="1.0"?>
<svg width="590" height="757" xmlns="http://www.w3.org/2000/svg" xmlns:svg="http://www.w3.org/2000/svg" enable-background="new 0 0 590 757" version="1.1" xml:space="preserve">
 <style type="text/css">.st0{fill:#FFFFFF;stroke:#000000;stroke-width:4;stroke-miterlimit:10;}
	.st1{fill:#55595B;}
	.st2{fill:#456A3E;}
	.st3{fill:#A61B30;}
	.st4{fill:#94B43B;stroke:#456A3E;stroke-width:4;stroke-miterlimit:10;}
	.st5{fill:#FFFFFF;}
	.st6{fill:none;stroke:#000000;stroke-width:5;stroke-miterlimit:10;}</style>
 <g class="layer">
  <title>Layer 1</title>
  <path class="st0" d="m93,391.5c-0.3,-34.5 9.2,-47.4 8.8,-81.8c-0.3,-17.5 -9.1,-42.3 -22.8,-60.8l8,-16.5c8.6,5 19,1.3 22.9,-3.4c2.9,-3.5 6.8,-12.3 3.1,-21.6l17.3,-8.7c15.1,14.6 41.3,33.6 68.2,36.6c28.6,3.2 52.1,-3.4 71,-14.4l25.5,34l24.5,-34c20.2,11.8 47.3,17.7 69.8,14.7c23.5,-3.1 51.1,-18.3 69.6,-36.8l17.3,10.1c-2.9,6 -2.5,16.1 5.3,21.7c5.7,4.1 14.6,6 20.5,2.4l8.5,16.7c-11.3,15.2 -19.8,33.9 -21.6,50.3c-3.6,33.9 8.6,62.1 8.1,91.5c-12,0.3 -24.1,-0.4 -24,15c0.1,15 14.1,16.3 24.6,15.5c-0.1,38.1 -6.8,102.3 -39.9,143.4c-32.1,39.9 -96.4,51 -137.8,67.6c-12.6,5.1 -25.3,14.5 -25.3,14.5s-12.7,-8.1 -33.3,-17c-54,-23.5 -92.6,-20.5 -135.3,-72.7c-25.6,-31.3 -34.2,-93.7 -33.6,-135.3c16.8,-0.3 25.3,-5.5 24.4,-16.5c-0.8,-10.6 -7.1,-15.2 -23.8,-14.5z" id="Escudo_Base"/>
  <path class="st1" d="m242.1,451.8c-7.8,-11.3 -8,-27.4 -5.4,-41.8l-111.7,0c0,11 -8,18.8 -24.5,18.8c0,26.4 7.4,93.6 38.1,130.1c41.7,49.5 108.7,48.5 152.4,75.1l0,-152c-11.2,-0.6 -38.4,-15 -48.9,-30.2zm-6.1,80.2c-8.5,7.5 -24,4.2 -28,-7.3c-2.7,-7.8 -0.5,-40.2 0.8,-49.7l-20.8,0l0,31c0,9.5 -8.3,27.3 -17.5,31.3l-8.3,-9.7c10.5,-4 15.8,-15.2 15.8,-25.5l0,-27.8c-12.2,0 -15.9,5.5 -15.9,16.8l-10.2,-2.3c0,-16.4 9.5,-23.9 25.6,-23.9l56.5,0l0,10l-15,0c0,0 -0.5,37.5 0,42c0.8,7 7.2,10.3 17,5l0,10.1z" id="Pi"/>
  <path class="st1" d="m501,250.3l-4,-8c-7.8,1.9 -18.5,-2.3 -23.3,-7.2c-4.9,-5.1 -8.5,-15 -7.4,-22.1l-7.7,-4.3c-6.3,12.5 -41.9,30.5 -64.3,35c-22.5,4.5 -57.3,-1 -73.2,-11.3l-23.1,32.6l0,83c9.9,9.7 39.7,12.6 46,10.3l10.3,11.6c-2.5,3.4 -4.3,10.3 -4.2,17.4c0.1,10.5 1.7,10.1 1.4,16.7l111.5,0c0.8,-12.6 14.8,-21.9 24.8,-19.3c0,-27.1 -8.7,-44.9 -8.8,-71.2c-0.1,-21.8 8.9,-48.2 22,-63.2zm-150.6,52.7l73.6,0c0,15.2 -22.1,22.3 -33,22.3l0,27c-2.9,-0.4 -6,-0.7 -9,-1.1l0,-26.1c-6.6,0 -31.6,-5.9 -31.6,-22.1zm16.7,76c0,-6.7 5.9,-9.1 14.9,-9.1l0,-4.5c1.2,0.1 2.4,0.3 3.7,0.4c1.8,0.2 3.5,0.4 5.3,0.6l0,3.5c9.3,0 16.7,2.1 16.7,9l-40.6,0l0,0.1zm48.6,0c-1.2,0.2 -2.4,-1.8 -3.4,-4c-3.6,-7.8 -13.8,-11.4 -24.1,-12.4c-14.5,-1.4 -24.9,-4.8 -24.5,-13.9c0.2,-5.2 7.3,-9.6 15.3,-12.8l0,9c-3,1.1 -5.5,2.3 -5.7,4.1c-0.8,6.6 15.9,5.8 23.8,8c10.7,2.9 19,8.3 20.3,13.4c1.1,4.3 -0.4,8.4 -1.7,8.6zm31.2,-77.4c-1.3,20.3 -16,30.9 -37.5,36.8c-4.8,1.3 -9.5,2.3 -14.5,3.1l0,-10.1c1,-0.1 1.1,-0.2 1.6,-0.2c27.1,-4.3 38.8,-13.6 38.5,-30.1c-0.2,-11.3 -10.2,-18.8 -21.5,-19.1c-15.5,-0.5 -19.5,5.6 -25.4,10c-3.6,2.8 -8.7,3.9 -11.9,2.4c-2.6,-1.2 -3.1,-3.6 1.2,-8.6c4.6,-5.4 14.7,-14.8 36.1,-14.8c19.3,0 34.4,15.4 33.4,30.6zm-63,-17.8c-1.3,0 -2.3,1 -2.3,2.3c0,1.3 1,2.3 2.3,2.3c1.3,0 2.3,-1 2.3,-2.3c0,-1.3 -1.1,-2.3 -2.3,-2.3z" id="Caliz"/>
  <path class="st2" d="m346.8,370.3l-5.1,-6.1c-2.9,1.3 -19.5,0.9 -25.3,-0.4c-5.4,-1.3 -17.7,-6.4 -21.4,-10.6c-3.5,2.9 -12.2,7.2 -21.5,10c-6.2,1.9 -17.2,3 -26.7,1.5l-3.8,5.3c2.2,4.3 2.8,8.5 3.2,20.1c0.3,9.5 -3.5,25.6 -3.2,36.7c1.1,32.3 36.3,45.8 52,49c15.7,-4.1 49.8,-13.9 51.3,-48.3c0.9,-22.1 -3.1,-27 -3.3,-38.3c-0.1,-7.5 1.3,-13.8 3.8,-18.9zm-56.3,3.2c0.9,-2 2.5,-1.8 2.7,-3.9l1.1,-13.5c0.1,-0.8 1.2,-0.8 1.3,0l1,13.2c0.4,2.6 1.8,2.7 2.8,4.1c1.3,1.9 1.4,6.6 -0.3,8.6c-2.2,2.7 -5.8,2.8 -8.1,0.1c-1.8,-1.9 -1.6,-6.4 -0.5,-8.6zm-5.3,9.4c1.2,1.3 2.2,0.4 5.6,2.6c3.4,2.3 4.2,4 4.2,4s1.1,-2.1 3.2,-3.6c3.6,-2.6 4.3,-1.3 6.2,-2.8c0.9,-0.7 6,-11.3 7.5,-14.4c0.3,-0.6 1.2,-0.3 1,0.4l-6.3,16.5c-0.5,3.2 -1.2,6.1 -5.2,7.8c-4.2,1.7 -10.4,1.4 -13.6,-0.2c-4.4,-2.2 -5.5,-6.2 -6,-7.8l-5.6,-16.1c-0.2,-0.7 0.7,-1.1 1.1,-0.5l7.9,14.1zm-3.5,10.5c1.5,2 4.1,1.4 7.7,2.9c4.4,1.8 5.4,4.1 5.4,4.1s0.7,-2.1 4.4,-3.9c3.4,-1.7 7.7,-1.2 8.7,-2.4l9.8,-16.2c0.4,-0.6 1.3,-0.1 0.9,0.6l-9,16.8c-1.6,3.5 -2.9,6.6 -8.4,9.5c-4.4,2.3 -9.8,1.7 -13.7,-0.3c-6,-3 -6.5,-7.1 -7.3,-8.6l-9.8,-16.7c-0.4,-0.7 0.6,-1.4 1.1,-0.7l10.2,14.9zm2.3,12.9c1.1,1 1.8,0.3 5.7,1.8c4.8,1.9 5.2,4 5.2,4s1.3,-2.8 4.3,-4c2.9,-1.1 4.9,0 7.3,-2.2l14.9,-19.4c0.5,-0.6 1.4,0.1 1,0.7l-12.8,20.2c-1.6,2.9 -1.2,4.9 -6,7.3c-4.5,2.1 -12.7,1.6 -16.6,0.2c-5,-1.8 -5,-5.3 -6.1,-6.8l-13.8,-21c-0.4,-0.6 0.5,-1.3 1,-0.7l15.9,19.9zm-32.1,-15.5c0.1,-0.4 0.6,-0.3 0.6,0c0.2,6.6 0.4,23.7 1,24.7c0.6,0.8 8.6,0.5 9,8.8c0.2,4.3 -1.1,6.2 -7.1,6.2c-4.8,0 -5.7,-3.7 -6.3,-10.9c-0.3,-3.4 1.9,-21.8 2.8,-28.8zm-1.7,44c2.5,0.6 5.9,0.1 7.5,-1c2.6,-1.7 6.2,-0.9 6.2,-0.9s-0.8,-2.5 0.8,-5.2c1.1,-1.9 1.5,-3.3 1,-5.3l-6.4,-19.4c-0.1,-0.5 0.5,-0.7 0.7,-0.3l8.6,18.3c1.2,2.8 3.5,5 3.2,8.8c-0.5,5.8 -5.8,10.8 -13,11c-3.8,0.2 -7.4,-2.7 -8.6,-6zm16.4,14.8c-3.5,-0.3 -6.4,-1.3 -6.8,-5.2c2.1,-0.2 4.2,-1 6.1,-2.5c3,-2.4 6.5,-1.9 6.5,-1.9s0,-2.8 1.3,-5.1c1.3,-2.3 2.4,-2.9 2.8,-7.4c2.8,1.5 5,4.1 4.8,8c-0.6,8.3 -8.3,14.8 -14.7,14.1zm46.3,16.9l-6.1,0.6l-9.8,-7.1l0,11.5c0,0 0.2,1.5 -2.5,1.5c-2.5,0 -2.5,-1.6 -2.5,-1.6l0,-11.4l-9,6.9l-5.1,-1.4l12.1,-9.6l0,-1.9l-4.4,-2.7c-2.9,0.6 -2.5,3 -5,4.5c-2.4,1.4 -7.4,1.1 -10.2,-2.9c2,-0.4 4.8,-2 6,-3.8c1.8,-2.4 6.8,-2.3 6.8,-2.3s-0.8,-5.8 0.3,-8.2c0.7,-1.6 1.7,-3.8 1.3,-6.2c3.3,1.6 5.7,5.4 5.8,8.7c0,4.4 -2.2,4.2 -2,7.3l3.5,3.4l0,-22.3c-2,-2.5 -5.7,0.1 -9.7,-3.3c-2.6,-2.2 -2.9,-6.4 -4.9,-9.5l-14.6,-21.5c-0.4,-0.6 0.4,-1.2 0.9,-0.7l18.4,21.7c1.6,1.9 3.7,0.9 7.2,1.7c3.6,0.9 5.8,5.3 5.8,5.3s2.3,-4 5.5,-5.2c3.4,-1.3 6.5,-0.7 8.6,-3l16.6,-20.5c0.5,-0.5 1.3,0.1 0.9,0.7l-14.5,22.2c-2.2,3.2 -1.6,5.1 -4.7,8.2c-3.9,4 -7.9,1.4 -10.4,4.3l0,21.8l4.6,-3.1c-0.2,-2.7 -2.1,-2.8 -2.2,-6.1s1.5,-7.6 6.1,-9.8c-0.8,1.8 -0.6,5.2 0.3,6.3c2.3,3.1 1,8.4 1,8.4s4.3,-1 5.9,1.6c1.2,1.9 3.2,3.2 6.1,4c-2.4,2.5 -5,4 -8.4,3.7c-3.6,-0.4 -4.2,-5 -6.9,-5.3l-4.4,2.8l0,1.8l13.6,10.5zm9.8,-16.9c-6.4,0.6 -14.1,-5.9 -14.6,-14c-0.2,-3.9 1.9,-6.5 4.8,-8c0.4,4.5 1.5,5.1 2.8,7.4c1.3,2.3 1.3,5.1 1.3,5.1s3.5,-0.5 6.5,1.9c1.9,1.5 4,2.3 6.1,2.5c-0.5,3.8 -3.3,4.8 -6.9,5.1zm7.8,-8.8c-7.2,-0.3 -12.5,-5.2 -13,-11c-0.4,-3.8 1.9,-6 3.2,-8.8l8.3,-17.3c0.4,-0.7 1.5,-0.3 1.2,0.5l-6.6,18.2c-0.5,2 -0.1,3.4 1,5.3c1.5,2.7 0.8,5.2 0.8,5.2s3.6,-0.8 6.2,0.9c1.6,1.1 5,1.6 7.5,1c-1.2,3.3 -4.7,6.2 -8.6,6zm9.7,-21.1c-0.7,7.2 -1.6,10.9 -6.3,10.9c-6,0 -7.3,-1.9 -7.1,-6.2c0.4,-8.2 8.5,-7.9 9,-8.8c0.6,-0.9 0.7,-17.1 0.9,-24c0,-0.6 0.8,-0.6 0.9,-0.1c1,7.4 2.9,25 2.6,28.2z" id="Espiga"/>
  <path class="st3" d="m222,342l0,-41l-13.5,41l13.5,0zm-63,0l0,-39.8l-12.8,39.8l12.8,0zm6,0l12.8,0l-12.8,-41.3l0,41.3zm103.7,-109.9c-15.9,10.3 -50.7,15.9 -73.2,11.3c-22.5,-4.5 -58.1,-22.5 -64.4,-35l-7.7,4.3c1.1,7.1 -2.5,17.1 -7.4,22.1c-4.8,4.9 -15.5,9.1 -23.3,7.2l-4,8c13.1,15 22.1,41.4 22,63.3c-0.1,26.3 -8.9,44.1 -8.8,71.2c10.1,-2.6 24.1,6.5 24.8,19.5l111.5,0c-0.3,-7 1.3,-6.3 1.4,-16.8c0.1,-7.1 -1.6,-14.2 -4.2,-17.6l10.4,-11.6c6.3,2.3 36.1,-0.6 46.1,-10.3l0,-83l-23.2,-32.6zm-44.9,124.6c-14.2,0 -25.8,-5.9 -25.8,-13.1c0,-0.6 0.1,-1.6 0.2,-1.6l4.5,0l18.3,-55.7c-5.5,-1.3 -11.9,-2.1 -18.7,-2.4c-1.1,4 -4.8,7 -9.3,7c-4.3,0 -7.9,-2.8 -9.2,-6.7c-6.2,0.5 -12.3,1.3 -17.7,2.4l17.4,55.3l4.7,0c0.1,0 0.2,1 0.2,1.6c0,7.3 -11.5,13.1 -25.8,13.1s-25.8,-5.9 -25.8,-13.1c0,-0.6 0.1,-1.6 0.2,-1.6l3.2,0l17.5,-53.1c-1,0.3 -1.9,0.7 -2.8,1l-3.2,-5.9c5.8,-4.1 18.7,-6.6 32.7,-7.3c1.6,-3 4.8,-5 8.5,-5c3.6,0 6.8,2 8.5,5c14.1,0.7 27,3.1 32.9,7.3l-3.3,5.9c-0.7,-0.4 -1.4,-0.7 -2.2,-1l16.7,53.1l3.6,0c0.1,0 0.2,1 0.2,1.6c0.2,7.4 -11.3,13.2 -25.5,13.2zm3.2,-14.7l12.9,0l-12.9,-39.5l0,39.5z" id="Balanza"/>
  <path class="st3" d="m394,464l0,59.1l6,-8.8l0,-48.4c0,-0.1 -0.6,-0.1 -0.9,-0.2c-1.6,-0.4 -3.1,-1 -5.1,-1.7zm-9,71.9l5,-6.8l0,-67.1c-1,-0.8 -3,-1.8 -5,-2.8l0,76.7zm-8.3,-84.9c-0.3,14.8 -7.6,23.9 -8.3,40c-0.7,14.3 4.2,32.8 12.7,42.1l0,-77.4c-1.7,-1.4 -3.2,-3 -4.4,-4.7zm28.3,56.6l4,-6.3l0,-34.6c-1,0 -2.6,-0.1 -4,-0.2l0,41.1zm59.5,-97.6l-111.7,0c2.6,14.4 2.1,30.5 -5.6,41.8c-10.6,15.2 -37.2,29.6 -49.2,30.2l0,152c44,-26.7 110.9,-25.7 152.6,-75.1c30.8,-36.5 38.3,-103.8 38.3,-130.1c-16.4,0 -24.4,-7.8 -24.4,-18.8zm-24,61.3l-53.5,84.7l-13.8,0l-3.6,-6.4c4.3,-3.2 4.9,-8.5 1.9,-14.9c-2.1,-4.4 -13.4,-20.9 -12.8,-39.3c0.7,-22.5 8.3,-29.6 9.3,-38.3c0.4,-3.6 -0.2,-6.9 -1.9,-9.1l3.9,-6l9,0c4.2,5.3 13.8,14.3 21.7,16.1c14,3.2 18.4,0 28.8,-2.1c9.4,-1.9 15.7,8 11,15.3zm-27.5,23.9l6,-7.5l0,-21.8c-2,0.3 -4,0.5 -6,0.6l0,28.7zm11.5,-30.8c-0.4,0.2 -1,0.4 -1.5,0.5l0,16.5l6.8,-9.9c5.9,-8.2 -1,-8.8 -5.3,-7.1z" id="svg_1"/>
  <g id="Hojas_Izquierda">
   <g id="Hojas_1">
    <path class="st4" d="m140.5,195c13.3,2.2 27.5,10.5 32.7,21c11.5,-11.6 8.3,-30.2 -9.7,-35.5c28.3,-34.5 34.1,-94.6 12.7,-119c-18.7,-21.3 -53.2,-13.5 -53.2,9.2s30.7,24.3 32.7,11.3l-0.4,-0.7c-5.3,2.4 -11.4,-0.6 -10.9,-6.2c0.3,-3.5 2.5,-4.9 5.3,-4.9c4.3,-0.1 6.2,2.5 6.3,8.1c0.1,23.9 -33,46 -32.7,71.3c0.4,29.6 11.9,41.7 17.2,45.4z" id="svg_2"/>
    <path class="st2" d="m148,196.8c0.3,-0.9 0.4,-1.9 0.4,-2.9c0,-5.8 -4.7,-10.5 -10.5,-10.5c-2.2,0 -4.3,0.7 -6,1.9c3.1,5.1 6.4,8.1 8.6,9.6c2.5,0.5 5,1.1 7.5,1.9z" id="svg_3"/>
    <g id="svg_4">
     <path class="st2" d="m135.2,186.8c0,0 0,-0.3 0,-1c0,-0.6 0,-1.5 0,-2.7c0,-2.3 0,-5.6 0.2,-9.6c0.1,-1 0.1,-2 0.2,-3.1c0.1,-1.1 0.2,-2.2 0.2,-3.3c0.1,-1.1 0.2,-2.3 0.3,-3.5c0.2,-1.2 0.3,-2.4 0.5,-3.6c0.2,-1.2 0.4,-2.5 0.6,-3.7c0.3,-1.3 0.5,-2.5 0.9,-3.8c0.3,-1.3 0.7,-2.6 1.2,-3.8c0.2,-0.6 0.4,-1.3 0.7,-1.9l0.9,-1.9c1.2,-2.4 2.6,-4.6 3.8,-6.8c1.2,-2.2 2.5,-4.4 3.7,-6.6c2.3,-4.3 4.5,-8.3 6.2,-11.8c1.8,-3.5 3.1,-6.5 4,-8.6c0.5,-1 0.8,-1.9 1,-2.5c0.2,-0.6 0.3,-0.9 0.3,-0.9s-0.1,0.3 -0.3,0.9c-0.2,0.6 -0.4,1.4 -0.8,2.5c-0.7,2.2 -1.9,5.2 -3.5,8.8c-1.5,3.6 -3.4,7.8 -5.5,12.2c-1.1,2.2 -2.1,4.5 -3.3,6.8c-1.1,2.3 -2.3,4.7 -3.4,7l-0.7,1.7c-0.2,0.6 -0.4,1.2 -0.5,1.8c-0.4,1.2 -0.6,2.4 -0.9,3.6c-0.3,1.2 -0.4,2.5 -0.6,3.7c-0.2,1.2 -0.3,2.4 -0.4,3.6c-0.1,1.2 -0.2,2.4 -0.2,3.5c0,1.2 -0.1,2.3 -0.1,3.4c0,1.1 0,2.2 0,3.2c0,1 0,2 0,3c0.1,3.9 0.2,7.1 0.4,9.3c0.1,1.1 0.2,2 0.2,2.6c0.1,0.6 0.1,0.9 0.1,0.9l-5.2,0.6z" id="svg_5"/>
    </g>
    <g id="svg_6">
     <path class="st2" d="m139.7,187c0,0 0.2,-0.4 0.7,-1.1c0.4,-0.7 1.1,-1.7 1.9,-3c1.6,-2.6 3.9,-6.5 6.5,-11.1c1.3,-2.3 2.7,-4.9 4.1,-7.6c1.4,-2.7 2.9,-5.6 4.3,-8.6c1.4,-3 2.9,-6.1 4.3,-9.3c1.4,-3.2 2.8,-6.5 4,-9.8c0.7,-1.7 1.2,-3.3 1.9,-5c0.6,-1.7 1.1,-3.3 1.7,-5c1.1,-3.3 2,-6.6 2.8,-9.9c0.4,-1.6 0.8,-3.2 1.1,-4.8c0.2,-0.8 0.3,-1.6 0.5,-2.3c0.1,-0.8 0.2,-1.5 0.4,-2.3c0.1,-0.8 0.2,-1.5 0.4,-2.2c0.1,-0.7 0.2,-1.5 0.2,-2.2c0.1,-0.7 0.2,-1.4 0.2,-2.1c0,-0.7 0.1,-1.4 0.1,-2c0,-0.7 0.1,-1.3 0.1,-2c0,-0.6 0,-1.3 0,-1.9c0,-1.2 0,-2.4 -0.1,-3.5c-0.1,-1.1 -0.2,-2.1 -0.2,-3c-0.1,-0.9 -0.3,-1.8 -0.4,-2.6c-0.1,-0.4 -0.1,-0.8 -0.2,-1.1c-0.1,-0.3 -0.2,-0.7 -0.2,-0.9c-0.1,-0.6 -0.3,-1.1 -0.4,-1.5c-0.2,-0.8 -0.3,-1.2 -0.3,-1.2s0.1,0.4 0.4,1.2c0.1,0.4 0.3,0.9 0.4,1.5c0.1,0.3 0.2,0.6 0.3,0.9c0.1,0.3 0.1,0.7 0.2,1.1c0.2,0.8 0.3,1.6 0.5,2.5c0.1,0.9 0.2,2 0.4,3c0.2,1.1 0.2,2.2 0.2,3.5c0,0.6 0.1,1.2 0.1,1.9c0,0.6 0,1.3 0,2c0,0.7 0,1.4 0,2.1c0,0.7 -0.1,1.4 -0.1,2.1c0,0.7 -0.1,1.5 -0.1,2.2c-0.1,0.7 -0.2,1.5 -0.3,2.3c-0.1,0.8 -0.2,1.5 -0.3,2.3c-0.1,0.8 -0.2,1.6 -0.4,2.4c-0.2,1.6 -0.6,3.2 -0.9,4.9c-0.7,3.3 -1.5,6.7 -2.4,10.1c-0.5,1.7 -1,3.4 -1.5,5.1c-0.6,1.7 -1.1,3.4 -1.7,5.1c-1.2,3.4 -2.4,6.8 -3.7,10.1c-1.3,3.3 -2.6,6.5 -3.9,9.6c-1.3,3.1 -2.7,6.1 -4,8.9c-1.3,2.8 -2.6,5.4 -3.8,7.8c-2.4,4.8 -4.5,8.8 -6.1,11.6c-0.8,1.4 -1.4,2.5 -1.8,3.2c-0.4,0.7 -0.7,1.1 -0.7,1.1l-4.2,-2.5z" id="svg_7"/>
    </g>
    <g id="svg_8">
     <path class="st2" d="m143.3,189.3c0,0 0.1,0 0.3,-0.1c0.2,-0.1 0.5,-0.1 0.9,-0.2c0.7,-0.2 1.7,-0.3 2.9,-0.4c0.6,0 1.3,-0.1 1.9,-0.1c0.7,0 1.4,-0.1 2.2,0c0.7,0 1.5,0.1 2.3,0.1c0.8,0.1 1.6,0.2 2.4,0.4c0.8,0.2 1.6,0.3 2.3,0.6c0.7,0.3 1.5,0.5 2.1,0.8c0.7,0.3 1.3,0.6 1.9,1c0.6,0.4 1.1,0.7 1.6,1.1c0.4,0.4 0.9,0.7 1.2,1c0.3,0.3 0.6,0.6 0.8,0.9c0.5,0.5 0.7,0.8 0.7,0.8s-0.3,-0.2 -0.9,-0.6c-0.3,-0.2 -0.6,-0.4 -1,-0.7c-0.4,-0.2 -0.9,-0.4 -1.4,-0.7c-0.5,-0.3 -1.1,-0.5 -1.6,-0.7c-0.6,-0.2 -1.2,-0.4 -1.9,-0.5c-0.7,-0.2 -1.4,-0.2 -2.1,-0.3c-0.7,-0.1 -1.4,-0.1 -2.1,-0.1c-0.7,0 -1.4,0.1 -2.1,0.1c-0.7,0.1 -1.4,0.2 -2,0.3c-0.7,0.1 -1.3,0.3 -1.9,0.4c-0.6,0.1 -1.1,0.3 -1.6,0.5c-1,0.3 -1.8,0.7 -2.4,0.9c-0.3,0.1 -0.5,0.2 -0.6,0.3c-0.1,0.1 -0.2,0.1 -0.2,0.1l-1.7,-4.9z" id="svg_9"/>
    </g>
    <circle class="st2" cx="150.1" cy="76.1" id="svg_10" r="5.4"/>
   </g>
   <g id="Hojas_2">
    <path class="st4" d="m94.5,219.6c35,-35.3 12,-96.3 -15.9,-98.1c1.5,13 -2.5,25.3 -6.1,33.6c-1.8,4 -4.7,18.8 -2.5,25.8c-7.9,-14 -30.2,-15.8 -40.4,-12.3c-3.9,14.3 8.9,35.2 22.7,41.3c-9.9,1 -16.3,13 -21.3,14.4c-2.6,0.7 -6.5,0.1 -6.8,-3.4c-0.2,-2.7 1.5,-4.2 3.5,-4.3c1.4,-0.1 4.7,1.2 4.8,4l0.6,0c2.1,-18.8 -30.5,-8.7 -26.8,12.5c2.3,13.4 11.4,19.7 30.5,16.5c23.2,-3.7 40.1,-29.8 57.7,-30z" id="svg_11"/>
    <path class="st2" d="m100.1,213.1c-1.9,-2.2 -4.7,-3.6 -7.8,-3.6c-5.7,0 -10.3,4.6 -10.3,10.3c0,1.2 0.2,2.3 0.6,3.4c4,-2.1 8,-3.5 11.9,-3.6c2.1,-2.1 3.9,-4.3 5.6,-6.5z" id="svg_12"/>
    <g id="svg_13">
     <path class="st2" d="m93.2,212.2c0,0 0.1,-0.3 0.2,-0.7c0.1,-0.5 0.2,-1.2 0.4,-2.1c0.2,-0.9 0.4,-2 0.6,-3.3c0.2,-1.3 0.4,-2.7 0.7,-4.3c0.2,-1.6 0.5,-3.3 0.7,-5.1c0.2,-1.8 0.5,-3.7 0.6,-5.7c0.1,-1 0.2,-2 0.3,-3c0.1,-1 0.1,-2.1 0.2,-3.1c0.2,-2.1 0.2,-4.2 0.2,-6.4c0.1,-2.1 0,-4.3 0,-6.4c-0.1,-2.1 -0.2,-4.2 -0.4,-6.2c-0.2,-2 -0.4,-3.9 -0.7,-5.7c-0.3,-1.8 -0.6,-3.5 -0.9,-5.1c-0.4,-1.6 -0.8,-3 -1.1,-4.3c-0.1,-0.3 -0.2,-0.6 -0.2,-0.9c-0.1,-0.3 -0.2,-0.6 -0.3,-0.8c-0.2,-0.5 -0.4,-1 -0.5,-1.5c-0.7,-1.8 -1,-2.8 -1,-2.8s0.4,1 1.2,2.7c0.2,0.4 0.4,0.9 0.6,1.4c0.1,0.3 0.2,0.5 0.4,0.8c0.1,0.3 0.2,0.6 0.3,0.9c0.4,1.3 0.9,2.7 1.4,4.2c0.4,1.6 0.8,3.3 1.3,5.1c0.4,1.8 0.7,3.8 1.1,5.8c0.3,2 0.6,4.1 0.8,6.2c0.2,2.1 0.4,4.3 0.5,6.5c0.1,2.2 0.2,4.4 0.2,6.5c0,1.1 0,2.1 0,3.2c0,1.1 0,2.1 0,3.1c0,2 -0.1,4 -0.2,5.9c-0.1,1.9 -0.2,3.6 -0.3,5.3c-0.1,1.6 -0.3,3.1 -0.4,4.5c-0.1,1.3 -0.3,2.5 -0.4,3.4c-0.1,1 -0.2,1.7 -0.3,2.2c-0.1,0.5 -0.1,0.8 -0.1,0.8l-4.9,-1.1z" id="svg_14"/>
    </g>
    <g id="svg_15">
     <path class="st2" d="m88.6,213.3c0,0 -0.6,-2.8 -1.3,-7c-0.7,-4.2 -1.6,-9.7 -2.4,-15.3c-0.4,-2.8 -0.7,-5.6 -1,-8.2c-0.3,-2.6 -0.5,-5.1 -0.7,-7.2c-0.2,-2.1 -0.3,-3.8 -0.4,-5.1c-0.1,-1.2 -0.1,-1.9 -0.1,-1.9s0.1,0.7 0.3,1.9c0.2,1.2 0.5,2.9 0.9,5c0.4,2.1 0.9,4.5 1.5,7c0.6,2.6 1.2,5.3 1.9,8c1.3,5.4 2.8,10.8 4,14.8c1.2,4 2.1,6.6 2.1,6.6l-4.8,1.4z" id="svg_16"/>
    </g>
    <g id="svg_17">
     <path class="st2" d="m85.7,216.3c0,0 -0.5,-0.7 -1.4,-1.8c-0.9,-1.2 -2.2,-2.8 -3.8,-4.7c-1.6,-1.9 -3.5,-4.2 -5.5,-6.5c-1,-1.2 -2.1,-2.4 -3.2,-3.6c-1.1,-1.2 -2.3,-2.4 -3.4,-3.6c-1.1,-1.2 -2.4,-2.4 -3.5,-3.5c-1.2,-1.2 -2.4,-2.2 -3.5,-3.3c-1.2,-1.1 -2.3,-2 -3.4,-2.9c-1.1,-0.9 -2.2,-1.7 -3.2,-2.5c-1,-0.8 -2,-1.4 -2.8,-1.9c-0.8,-0.6 -1.6,-1 -2.3,-1.4c-1.3,-0.7 -2,-1.1 -2,-1.1s0.8,0.3 2.1,0.9c0.7,0.3 1.5,0.7 2.4,1.2c0.9,0.5 1.9,1 3,1.7c1.1,0.7 2.3,1.4 3.5,2.2c1.2,0.8 2.5,1.7 3.7,2.7c1.3,1 2.6,1.9 3.9,3c1.3,1.1 2.6,2.1 3.9,3.2c1.3,1.1 2.6,2.2 3.8,3.3c1.2,1.1 2.4,2.2 3.6,3.3c2.3,2.2 4.4,4.3 6.2,6.1c1.8,1.8 3.2,3.4 4.3,4.5c1,1.1 1.6,1.7 1.6,1.7l-4,3z" id="svg_18"/>
    </g>
    <g id="svg_19">
     <path class="st2" d="m84.6,217.7c0,0 -2.1,-0.9 -5.1,-2.5c-1.5,-0.8 -3.2,-1.7 -5.1,-2.8c-0.9,-0.5 -1.8,-1.1 -2.8,-1.7c-0.9,-0.6 -1.9,-1.2 -2.8,-1.8c-1.9,-1.2 -3.7,-2.5 -5.4,-3.8c-0.8,-0.6 -1.7,-1.3 -2.4,-1.9c-0.7,-0.6 -1.5,-1.2 -2.1,-1.7c-0.6,-0.6 -1.2,-1.1 -1.7,-1.5c-0.5,-0.5 -0.9,-0.9 -1.3,-1.2c-0.7,-0.7 -1.1,-1.1 -1.1,-1.1s0.4,0.4 1.2,1c0.4,0.3 0.8,0.7 1.4,1.1c0.5,0.4 1.2,0.9 1.8,1.4c0.7,0.5 1.4,1 2.2,1.6c0.8,0.6 1.6,1.1 2.5,1.6c1.8,1.1 3.7,2.2 5.6,3.3c1,0.6 2,1 2.9,1.6c1,0.5 1.9,1 2.9,1.4c1.9,0.9 3.7,1.7 5.2,2.3c3.1,1.3 5.1,2 5.1,2l-1,2.7z" id="svg_20"/>
    </g>
    <g id="svg_21">
     <path class="st2" d="m84.9,221.5c0,0 -0.2,0 -0.7,-0.1c-0.4,-0.1 -1.1,-0.1 -1.9,-0.2c-0.8,-0.1 -1.9,-0.2 -3,-0.2c-1.2,0 -2.5,0 -3.9,0c-0.7,0 -1.5,0.1 -2.3,0.1c-0.8,0.1 -1.6,0.2 -2.4,0.3c-0.8,0.1 -1.7,0.3 -2.5,0.4c-0.9,0.2 -1.7,0.4 -2.6,0.6c-1.8,0.5 -3.6,1 -5.3,1.7c-0.9,0.3 -1.8,0.7 -2.6,1.1l-1.3,0.6l-1.3,0.7c-1.7,0.9 -3.3,2.1 -4.9,3.2c-1.6,1.2 -3.2,2.3 -4.8,3.4c-1.6,1 -3.2,1.9 -4.8,2.6c-1.6,0.7 -3.1,1.3 -4.5,1.8c-2.9,0.9 -5.4,1.1 -7.2,1.1c-0.9,0 -1.6,-0.1 -2,-0.1c-0.5,0 -0.7,-0.1 -0.7,-0.1s0.2,0 0.7,0c0.5,0 1.1,0.1 2,0c1.7,-0.1 4.2,-0.5 7,-1.5c1.4,-0.5 2.8,-1.2 4.3,-2c1.5,-0.8 3,-1.8 4.5,-2.9c1.5,-1.1 3,-2.3 4.4,-3.6c1.5,-1.2 3.1,-2.6 4.9,-3.6l1.3,-0.8l1.3,-0.7c0.9,-0.5 1.8,-1 2.7,-1.4c1.8,-0.9 3.7,-1.5 5.5,-2.1c0.9,-0.3 1.8,-0.5 2.7,-0.8c0.9,-0.2 1.8,-0.4 2.6,-0.6c0.9,-0.1 1.7,-0.3 2.5,-0.4c0.8,-0.1 1.6,-0.2 2.4,-0.3c1.5,-0.2 2.9,-0.3 4.2,-0.3c1.3,0 2.3,0 3.3,0c0.9,0 1.6,0.1 2.1,0.1c0.5,0 0.8,0.1 0.8,0.1l-0.5,3.9z" id="svg_22"/>
    </g>
    <circle class="st2" cx="28.6" cy="221.1" id="svg_23" r="3.7"/>
   </g>
   <g id="Hojas_3_1_">
    <path class="st4" d="m68,247.8c-0.8,11.8 24,31 23.1,66.5c-0.7,29.9 -20.8,56.7 -36.9,65.5c9,-21.9 -14.4,-52.1 -12.3,-84.6c1.6,-22.6 9.5,-36.9 26.1,-47.4z" id="svg_24"/>
    <path class="st2" d="m68,247.8c-3.6,2.3 -6.9,4.8 -9.7,7.5c1.7,2.6 4.6,4.4 7.9,4.4c1.9,0 3.7,-0.6 5.2,-1.5c-2.2,-4.1 -3.6,-7.5 -3.4,-10.4z" id="svg_25"/>
    <g id="svg_26">
     <path class="st2" d="m64.9,256.9c0,0 0,0.1 -0.1,0.2c-0.1,0.1 -0.2,0.3 -0.3,0.6c-0.2,0.5 -0.6,1.3 -1,2.4c-0.4,1.1 -0.8,2.4 -1.2,4c-0.2,0.8 -0.4,1.6 -0.6,2.5c-0.2,0.9 -0.4,1.9 -0.6,2.8c-0.1,0.5 -0.2,1 -0.3,1.5c-0.1,0.5 -0.2,1.1 -0.2,1.6c-0.2,1.1 -0.3,2.2 -0.5,3.4c-0.1,1.2 -0.2,2.4 -0.4,3.6c-0.1,0.6 -0.1,1.2 -0.2,1.9c0,0.6 -0.1,1.3 -0.1,1.9c-0.1,1.3 -0.1,2.6 -0.2,3.9c0,1.3 0,2.7 -0.1,4c0,1.3 -0.1,2.7 0,4.1c0,1.4 0.1,2.7 0.1,4.1c0,2.7 0.3,5.5 0.4,8.2c0.1,1.3 0.2,2.7 0.3,4c0.1,1.3 0.3,2.6 0.4,3.9c0.3,2.6 0.5,5 0.9,7.4c0.3,2.3 0.7,4.6 1,6.6c0.3,2 0.6,3.9 0.9,5.6c0.3,1.7 0.6,3.1 0.8,4.3c0.4,2.4 0.7,3.7 0.7,3.7s-0.3,-1.3 -0.8,-3.7c-0.3,-1.2 -0.6,-2.6 -1,-4.2c-0.4,-1.6 -0.8,-3.5 -1.2,-5.5c-0.4,-2 -0.8,-4.2 -1.3,-6.6c-0.5,-2.3 -0.8,-4.8 -1.2,-7.4c-0.2,-1.3 -0.4,-2.6 -0.6,-3.9c-0.2,-1.3 -0.3,-2.7 -0.5,-4c-0.3,-2.7 -0.7,-5.5 -0.8,-8.2c-0.1,-1.4 -0.2,-2.8 -0.3,-4.1c-0.1,-1.4 -0.1,-2.8 -0.2,-4.1c0,-1.4 -0.1,-2.7 -0.1,-4.1c0,-1.3 0,-2.7 0,-4c0,-0.7 0,-1.3 0,-1.9c0,-0.6 0.1,-1.3 0.1,-1.9c0.1,-1.3 0.1,-2.5 0.2,-3.7c0.1,-1.2 0.2,-2.4 0.3,-3.5c0.1,-0.6 0.1,-1.1 0.2,-1.7c0.1,-0.5 0.2,-1.1 0.2,-1.6c0.2,-1 0.3,-2 0.5,-3c0.2,-0.9 0.4,-1.8 0.5,-2.7c0.4,-1.7 0.7,-3.2 1.1,-4.4c0.3,-1.2 0.7,-2.1 1,-2.8c0.1,-0.3 0.3,-0.6 0.3,-0.8c0.1,-0.2 0.1,-0.2 0.1,-0.2l3.8,1.8z" id="svg_27"/>
    </g>
    <g id="svg_28">
     <path class="st2" d="m68.4,256.5c0,0 1,4.6 2.1,11.4c0.3,1.7 0.6,3.6 0.9,5.5c0.3,2 0.6,4 0.9,6.2c0.3,2.1 0.5,4.4 0.8,6.6c0.3,2.3 0.4,4.6 0.7,6.9c0.2,2.3 0.3,4.6 0.5,6.9c0.1,2.3 0.2,4.5 0.3,6.7c0,2.2 0.1,4.2 0,6.2c-0.1,2 -0.1,3.9 -0.2,5.6c-0.1,1.7 -0.2,3.3 -0.3,4.7c-0.1,1.4 -0.3,2.6 -0.4,3.6c-0.2,2 -0.4,3.1 -0.4,3.1s0.1,-1.1 0.2,-3.2c0,-1 0.2,-2.2 0.2,-3.6c0,-1.4 0,-3 0.1,-4.7c0,-1.7 -0.1,-3.6 -0.1,-5.5c-0.1,-2 -0.2,-4 -0.4,-6.2c-0.1,-2.1 -0.4,-4.3 -0.6,-6.6c-0.3,-2.2 -0.5,-4.5 -0.8,-6.8c-0.3,-2.3 -0.6,-4.5 -1,-6.8c-0.4,-2.2 -0.7,-4.4 -1.1,-6.5c-0.4,-2.1 -0.8,-4.1 -1.2,-6.1c-0.4,-1.9 -0.8,-3.7 -1.2,-5.4c-1.5,-6.7 -2.7,-11.1 -2.7,-11.1l3.7,-0.9z" id="svg_29"/>
    </g>
   </g>
   <g id="Hojas_4_1_">
    <path class="st4" d="m81.5,376.4c-1.2,5.6 -23.5,24.5 -39.6,23.6s-18.6,-9.6 -18.5,-13.1s2.5,-6.2 5.6,-6.6c3.4,-0.5 7.2,1.3 6.9,4s-4.8,5.6 -10.4,3.5l-0.3,0.9c16,6.5 19.3,-15.9 1.5,-15.9c-13.5,0 -23.3,14.4 -23.3,30.4c0,16.8 13.1,37.5 37.1,36c49.2,-3.2 43.5,-58.2 41,-62.8z" id="svg_30"/>
    <path class="st2" d="m75.1,384.4c0,0 0,0.1 0,0.1c0,5.3 3.1,9.9 7.6,12.1c1.1,-10.1 -0.3,-18.5 -1.2,-20.2c-0.4,1.7 -2.8,4.7 -6.4,8z" id="svg_31"/>
    <g id="svg_32">
     <path class="st2" d="m81.4,391c0,0 -0.1,0.3 -0.3,0.8c-0.1,0.3 -0.2,0.6 -0.4,1c-0.2,0.4 -0.4,0.9 -0.6,1.4c-0.2,0.5 -0.5,1.1 -0.8,1.7c-0.3,0.6 -0.7,1.2 -1.1,1.9c-0.4,0.7 -0.8,1.4 -1.3,2.1c-0.5,0.7 -1,1.5 -1.6,2.2c-1.1,1.5 -2.5,3.1 -3.9,4.6c-1.5,1.6 -3.1,3.1 -4.9,4.6c-1.8,1.5 -3.8,2.9 -5.9,4.2c-2.1,1.3 -4.3,2.4 -6.6,3.3c-2.3,0.9 -4.7,1.6 -7.1,2c-2.4,0.4 -4.8,0.6 -7.2,0.3c-2.3,-0.2 -4.5,-0.6 -6.5,-1.4c-2,-0.7 -3.8,-1.6 -5.4,-2.6c-1.5,-1 -2.9,-2 -4,-3c-0.3,-0.2 -0.6,-0.5 -0.8,-0.7c-0.2,-0.2 -0.5,-0.5 -0.7,-0.7c-0.4,-0.5 -0.9,-0.9 -1.2,-1.2c-0.7,-0.8 -1.2,-1.4 -1.6,-1.9c-0.4,-0.4 -0.6,-0.7 -0.6,-0.7s0.2,0.2 0.6,0.6c0.4,0.4 1,1 1.7,1.8c0.4,0.3 0.8,0.7 1.3,1.2c0.2,0.2 0.5,0.4 0.7,0.7c0.3,0.2 0.6,0.4 0.8,0.6c1.1,0.9 2.5,1.8 4.1,2.7c1.6,0.8 3.3,1.6 5.3,2.1c1.9,0.6 4.1,0.9 6.3,0.9c2.2,0.1 4.5,-0.3 6.7,-0.7c2.2,-0.5 4.4,-1.3 6.6,-2.3c2.1,-1 4.1,-2.2 6,-3.5c1.9,-1.3 3.6,-2.8 5.2,-4.2c1.6,-1.5 3,-3 4.3,-4.6c1.3,-1.5 2.4,-3.1 3.3,-4.5c0.5,-0.7 0.9,-1.4 1.3,-2.1c0.4,-0.7 0.7,-1.3 1.1,-2c0.3,-0.6 0.6,-1.2 0.8,-1.8c0.2,-0.5 0.5,-1 0.6,-1.5c0.2,-0.4 0.3,-0.8 0.4,-1.2c0.1,-0.4 0.2,-0.7 0.3,-1c0.2,-0.5 0.3,-0.8 0.3,-0.8l4.8,1.7z" id="svg_33"/>
    </g>
    <ellipse class="st2" cx="30" cy="384.7" id="svg_34" rx="5.3" ry="3.4"/>
   </g>
   <g id="Hojas_5_1_">
    <path class="st4" d="m79,437.5c4.9,19.6 7.2,33.7 1.8,54.6c-5.9,22.5 -32.8,39.1 -44.6,68.1c-19.9,-19 -17,-56.4 -8.9,-72.1c17.5,-33.7 43.7,-40.3 51.7,-50.6z" id="svg_35"/>
    <path class="st2" d="m79,437.5c-2.6,3.4 -7.2,6.3 -12.8,10c2.6,4.9 7.7,8.3 13.6,8.3c1,0 2,-0.1 2.9,-0.3c-0.8,-5.7 -2.1,-11.6 -3.7,-18z" id="svg_36"/>
    <g id="svg_37">
     <path class="st2" d="m75.1,451.1c0,0 -0.2,0.2 -0.7,0.6c-0.4,0.4 -1.1,1 -1.9,1.8c-0.8,0.8 -1.8,1.8 -2.8,3c-1.1,1.2 -2.3,2.5 -3.5,4c-1.3,1.5 -2.6,3.2 -4,5c-1.4,1.8 -2.8,3.7 -4.2,5.7c-0.7,1 -1.4,2.1 -2.1,3.1c-0.7,1.1 -1.4,2.1 -2.1,3.3c-0.7,1.1 -1.4,2.2 -2,3.4c-0.7,1.1 -1.3,2.3 -1.9,3.5c-0.6,1.2 -1.3,2.3 -1.9,3.5c-0.6,1.2 -1.1,2.4 -1.7,3.6c-0.5,1.2 -1.2,2.3 -1.6,3.5c-0.5,1.2 -1,2.4 -1.4,3.5c-0.4,1.2 -1,2.3 -1.3,3.4c-0.4,1.1 -0.7,2.3 -1.1,3.3c-0.4,1.1 -0.7,2.1 -1.1,3.2c-0.3,1 -0.5,2 -0.8,3c-0.5,1.9 -1,3.7 -1.3,5.3c-0.3,1.6 -0.5,3 -0.7,4.1c-0.4,2.3 -0.6,3.6 -0.6,3.6s0.2,-1.3 0.4,-3.6c0.1,-1.2 0.3,-2.6 0.5,-4.2c0.3,-1.6 0.6,-3.4 1,-5.4c0.2,-1 0.4,-2 0.6,-3.1c0.3,-1 0.6,-2.1 0.9,-3.2c0.3,-1.1 0.6,-2.3 0.9,-3.4c0.3,-1.2 0.8,-2.3 1.1,-3.5c0.4,-1.2 0.8,-2.4 1.2,-3.6c0.4,-1.2 1,-2.4 1.4,-3.7c0.5,-1.2 1,-2.5 1.5,-3.7c0.6,-1.2 1.1,-2.4 1.7,-3.7c0.6,-1.2 1.1,-2.5 1.8,-3.6c0.6,-1.2 1.3,-2.4 1.9,-3.5c0.6,-1.2 1.3,-2.3 1.9,-3.4c0.7,-1.1 1.3,-2.2 2,-3.3c1.4,-2.1 2.6,-4.2 4,-6.1c1.3,-1.9 2.6,-3.7 3.8,-5.3c1.2,-1.6 2.4,-3.1 3.4,-4.4c1.1,-1.3 2,-2.4 2.8,-3.3c0.8,-0.9 1.4,-1.6 1.9,-2.1c0.4,-0.5 0.7,-0.7 0.7,-0.7l3.3,3.4z" id="svg_38"/>
    </g>
    <g id="svg_39">
     <path class="st2" d="m80,451.8c0,0 -0.1,0.3 -0.1,0.8c-0.1,0.6 -0.3,1.3 -0.5,2.3c-0.2,1 -0.5,2.2 -0.9,3.5c-0.3,1.3 -0.8,2.8 -1.3,4.5c-0.5,1.6 -1.1,3.4 -1.8,5.2c-0.6,1.8 -1.4,3.7 -2.2,5.7c-0.8,2 -1.7,3.9 -2.5,6c-0.9,2 -1.9,4 -2.9,6c-1,2 -2,4 -3.1,5.9c-1.1,1.9 -2.1,3.8 -3.1,5.6c-1.1,1.8 -2.1,3.5 -3.1,5.2c-1,1.6 -2,3.1 -2.9,4.6c-0.9,1.4 -1.7,2.7 -2.5,3.8c-0.8,1.1 -1.4,2.1 -2,2.9c-1.1,1.6 -1.7,2.5 -1.7,2.5s0.6,-1 1.6,-2.6c0.5,-0.8 1.1,-1.9 1.8,-3c0.7,-1.2 1.4,-2.5 2.2,-4c0.8,-1.5 1.7,-3 2.6,-4.7c0.9,-1.7 1.8,-3.5 2.7,-5.4c0.9,-1.9 1.8,-3.8 2.7,-5.8c0.9,-2 1.7,-4 2.6,-6.1c0.8,-2 1.6,-4.1 2.4,-6.1c0.7,-2.1 1.5,-4.1 2.1,-6c0.6,-2 1.2,-3.9 1.7,-5.7c0.5,-1.8 0.9,-3.5 1.4,-5.1c0.4,-1.6 0.7,-3.1 0.9,-4.4c0.3,-1.3 0.4,-2.4 0.6,-3.4c0.1,-0.9 0.2,-1.7 0.3,-2.1c0.1,-0.5 0.1,-0.7 0.1,-0.7l4.9,0.6z" id="svg_40"/>
    </g>
   </g>
   <g id="Hojas_6">
    <path class="st4" d="m95.4,515.6c6.5,27.5 14.8,63.4 39.7,69.1c-12.1,16.6 -44.3,15.3 -51.2,-7.7c-4.1,19.3 -9.9,23.7 -12,36.9c-1.8,11.4 11.3,16 16.3,10.3c3.5,-4 -2.7,-8 -7.2,-5.1c-2,1.3 -3.6,4.8 -3.6,4.8l-0.7,-0.5c0.1,-3 4.6,-7 8.2,-7.1c3.2,-0.1 6,2.1 6.2,6.9c0.3,12.2 -19.5,18.2 -35.3,-0.8c-20.7,-25.2 -13.2,-74.8 39.6,-106.8z" id="svg_41"/>
    <path class="st2" d="m95.4,515.6c-5.7,3.4 -10.8,7.1 -15.5,10.9c3,2.7 6.9,4.3 11.2,4.3c2.7,0 5.3,-0.7 7.6,-1.8c-1.3,-4.6 -2.3,-9.1 -3.3,-13.4z" id="svg_42"/>
    <g id="svg_43">
     <path class="st2" d="m89.6,528.4c0,0 -0.2,0.2 -0.5,0.6c-0.3,0.4 -0.8,1 -1.3,1.7c-0.6,0.7 -1.3,1.7 -2.1,2.8c-0.8,1.1 -1.7,2.3 -2.6,3.7c-0.9,1.4 -1.9,2.8 -2.9,4.5c-1,1.6 -2,3.3 -3,5.1c-1,1.8 -2,3.7 -3,5.6c-0.5,1 -1,2 -1.4,2.9c-0.5,1 -1,2 -1.4,3c-0.9,2 -1.8,4 -2.5,6.1c-0.4,1 -0.8,2 -1.1,3c-0.4,1 -0.6,2 -1,3c-0.3,1 -0.6,2 -0.9,2.9c-0.3,1 -0.5,1.9 -0.7,2.8c-0.5,1.8 -1,3.6 -1.2,5.2c-0.3,1.6 -0.6,3.1 -0.8,4.5c-0.1,1.3 -0.3,2.5 -0.4,3.5c-0.2,1.9 -0.3,3 -0.3,3s0,-1.1 0.1,-3.1c0,-1 0.1,-2.2 0.1,-3.5c0.1,-1.3 0.3,-2.9 0.5,-4.5c0.1,-1.7 0.5,-3.4 0.8,-5.3c0.2,-0.9 0.3,-1.9 0.5,-2.9c0.2,-1 0.5,-2 0.7,-3c0.3,-1 0.5,-2.1 0.8,-3.1c0.3,-1 0.6,-2.1 0.9,-3.1c0.6,-2.1 1.4,-4.2 2.1,-6.3c0.4,-1.1 0.8,-2.1 1.2,-3.1c0.4,-1 0.8,-2.1 1.2,-3.1c0.9,-2 1.8,-4 2.7,-5.9c0.9,-1.9 1.8,-3.7 2.7,-5.4c0.9,-1.7 1.8,-3.3 2.6,-4.8c0.8,-1.5 1.7,-2.8 2.4,-4c0.7,-1.2 1.4,-2.2 1.9,-3c0.5,-0.8 1,-1.5 1.3,-1.9c0.3,-0.4 0.5,-0.7 0.5,-0.7l4.1,2.8z" id="svg_44"/>
    </g>
    <g id="svg_45">
     <path class="st2" d="m95.3,527.2c0,0 0,0.2 -0.1,0.6c-0.1,0.4 -0.1,1 -0.3,1.8c-0.2,1.6 -0.4,3.8 -0.6,6.5c-0.3,5.4 -0.4,12.8 0.8,20c0.3,1.8 0.6,3.6 1,5.3c0.4,1.7 0.9,3.5 1.4,5.1c1.1,3.2 2.4,6.2 3.8,8.5c0.4,0.6 0.7,1.1 1,1.7c0.4,0.5 0.7,1 1,1.5c0.6,0.9 1.3,1.6 1.8,2.3c1.1,1.2 1.7,1.9 1.7,1.9s-0.7,-0.6 -1.9,-1.7c-0.6,-0.6 -1.3,-1.3 -2,-2.1c-0.4,-0.4 -0.8,-0.9 -1.2,-1.4c-0.4,-0.5 -0.8,-1.1 -1.2,-1.6c-1.6,-2.3 -3.3,-5.2 -4.6,-8.4c-0.7,-1.6 -1.3,-3.3 -1.9,-5.1c-0.6,-1.8 -1.1,-3.6 -1.5,-5.4c-1.8,-7.3 -2.4,-14.9 -2.5,-20.6c-0.1,-2.8 0,-5.2 0.1,-6.9c0,-0.8 0.1,-1.5 0.1,-1.9c0,-0.5 0.1,-0.7 0.1,-0.7l5,0.6z" id="svg_46"/>
    </g>
    <ellipse class="st2" cx="83.5" cy="622.5" id="svg_47" rx="5.7" ry="3.6"/>
   </g>
   <g id="Hojas_7">
    <path class="st4" d="m234.7,634c-10.8,-2.6 -61.5,-29 -91.7,-30c-25.3,-0.9 -43.8,18.9 -44.3,32c-0.4,9.5 4,13.9 10.3,14.2c4,0.2 7.2,-2.3 7.4,-5.8c0.1,-2.7 -1.8,-6.5 -7.8,-5.8l-0.1,0.6c6,-0.2 9,4.5 5.2,8.3c-1.4,1.4 -4.6,1.5 -6.3,-1.3c-3.4,-5.6 0.4,-12.8 9.6,-12.6c13.2,0.4 36.2,21.9 66.5,21.9c19,0 41.4,-10.2 51.2,-21.5z" id="svg_48"/>
    <path class="st2" d="m219,641.1c0,1.5 0.3,3 0.7,4.3c6.1,-3.4 11.3,-7.3 14.9,-11.4c-2,-0.5 -5.5,-1.8 -10,-3.7c-3.3,2.4 -5.6,6.3 -5.6,10.8z" id="svg_49"/>
    <g id="svg_50">
     <path class="st2" d="m223.1,637.7c0,0 -0.4,0 -1.1,-0.1c-0.7,-0.1 -1.8,-0.2 -3.1,-0.3c-2.6,-0.3 -6.4,-0.8 -10.9,-1.5c-2.3,-0.3 -4.7,-0.7 -7.3,-1.2c-2.6,-0.5 -5.3,-1 -8.1,-1.6c-2.8,-0.6 -5.6,-1.3 -8.5,-2.1c-1.4,-0.4 -2.9,-0.9 -4.3,-1.3c-1.4,-0.5 -2.9,-1 -4.3,-1.5c-2.8,-1 -5.6,-1.9 -8.5,-2.7c-2.8,-0.8 -5.7,-1.5 -8.4,-2.1c-5.5,-1.2 -10.7,-2.1 -15.2,-2.6c-4.5,-0.5 -8.2,-0.6 -10.9,-0.4c-1.3,0.1 -2.3,0.3 -3,0.4c-0.7,0.2 -1,0.3 -1,0.3s0.3,-0.1 1,-0.3c0.7,-0.2 1.7,-0.4 3,-0.6c2.6,-0.4 6.4,-0.4 11,-0.2c4.5,0.3 9.8,0.9 15.4,1.8c2.8,0.5 5.7,1 8.6,1.7c2.9,0.6 5.9,1.4 8.8,2.3c1.4,0.4 2.9,0.8 4.3,1.3c1.4,0.4 2.9,0.8 4.3,1.1c2.9,0.6 5.7,1.2 8.5,1.7c2.8,0.5 5.4,0.9 8,1.2c2.5,0.3 5,0.6 7.2,0.8c4.5,0.5 8.2,0.7 10.8,0.9c1.3,0.1 2.3,0.1 3,0.2c0.7,0 1.1,0 1.1,0l-0.4,4.8z" id="svg_51"/>
    </g>
    <g id="svg_52">
     <path class="st2" d="m221.2,643c0,0 -1.1,0 -3.1,0.1c-1.9,0.1 -4.7,0.1 -8,0.1c-6.6,0 -15.4,-0.2 -24.2,-1c-4.4,-0.4 -8.8,-0.9 -12.8,-1.5c-2,-0.3 -4,-0.7 -5.8,-1.1c-1.8,-0.4 -3.6,-0.8 -5.2,-1.3c-0.8,-0.2 -1.5,-0.5 -2.3,-0.7c-0.7,-0.3 -1.4,-0.5 -2,-0.7c-1.2,-0.5 -2.3,-0.9 -3.2,-1.4c-0.9,-0.4 -1.5,-0.8 -2,-1.1c-0.4,-0.3 -0.7,-0.4 -0.7,-0.4s0.2,0.1 0.7,0.3c0.5,0.2 1.1,0.6 2,0.9c0.9,0.4 2,0.7 3.2,1.2c0.6,0.2 1.3,0.4 2,0.6c0.7,0.2 1.5,0.3 2.3,0.5c1.6,0.3 3.3,0.6 5.2,0.9c1.9,0.3 3.8,0.5 5.8,0.7c4.1,0.4 8.4,0.6 12.8,0.6c8.7,0.1 17.4,-0.3 23.9,-0.8c3.3,-0.2 6,-0.5 7.9,-0.7c1.9,-0.2 3,-0.3 3,-0.3l0.5,5.1z" id="svg_53"/>
    </g>
    <circle class="st2" cx="111" cy="643.7" id="svg_54" r="5.4"/>
   </g>
  </g>
  <g id="Hojas_Derecha">
   <g id="Hojas_1_1_">
    <path class="st4" d="m448.5,195c-13.3,2.2 -27.5,10.5 -32.7,21c-11.5,-11.6 -8.3,-30.2 9.7,-35.5c-28.3,-34.5 -34.1,-94.6 -12.7,-119c18.7,-21.3 53.2,-13.5 53.2,9.2s-30.7,24.3 -32.7,11.2l0.4,-0.7c5.3,2.4 11.4,-0.6 10.9,-6.2c-0.3,-3.5 -2.5,-4.9 -5.3,-4.9c-4.3,-0.1 -6.2,2.5 -6.3,8.1c-0.1,23.9 33,46 32.7,71.3c-0.3,29.7 -11.8,41.8 -17.2,45.5z" id="svg_55"/>
    <path class="st2" d="m441,196.8c-0.3,-0.9 -0.4,-1.9 -0.4,-2.9c0,-5.8 4.7,-10.5 10.5,-10.5c2.2,0 4.3,0.7 6,1.9c-3.1,5.1 -6.4,8.1 -8.6,9.6c-2.4,0.5 -5,1.1 -7.5,1.9z" id="svg_56"/>
    <g id="svg_57">
     <path class="st2" d="m448.9,186.5c0,0 0,-0.3 0.1,-0.9c0,-0.6 0.1,-1.5 0.2,-2.6c0.2,-2.2 0.3,-5.5 0.4,-9.3c0,-1 0,-2 0,-3c0,-1 0,-2.1 0,-3.2c0,-1.1 -0.1,-2.2 -0.1,-3.4c-0.1,-1.2 -0.2,-2.3 -0.2,-3.5c-0.1,-1.2 -0.2,-2.4 -0.4,-3.6c-0.2,-1.2 -0.3,-2.5 -0.6,-3.7c-0.3,-1.2 -0.5,-2.5 -0.9,-3.6c-0.2,-0.6 -0.3,-1.2 -0.5,-1.8l-0.7,-1.7c-1,-2.3 -2.2,-4.7 -3.4,-7c-1.1,-2.3 -2.2,-4.6 -3.3,-6.8c-2.1,-4.4 -4,-8.6 -5.5,-12.2c-1.5,-3.6 -2.7,-6.6 -3.5,-8.8c-0.4,-1.1 -0.7,-1.9 -0.8,-2.5c-0.2,-0.6 -0.3,-0.9 -0.3,-0.9s0.1,0.3 0.3,0.9c0.2,0.6 0.5,1.4 1,2.5c0.9,2.1 2.2,5.1 4,8.6c1.7,3.5 3.9,7.5 6.2,11.8c1.2,2.1 2.4,4.3 3.7,6.6c1.2,2.3 2.6,4.5 3.8,6.8l0.9,1.9c0.3,0.6 0.5,1.3 0.7,1.9c0.5,1.3 0.8,2.6 1.2,3.8c0.4,1.3 0.6,2.6 0.9,3.8c0.2,1.3 0.4,2.5 0.6,3.7c0.2,1.2 0.3,2.4 0.5,3.6c0.1,1.2 0.2,2.4 0.3,3.5c0.1,1.1 0.2,2.2 0.2,3.3c0.1,1.1 0.1,2.1 0.2,3.1c0.2,4 0.2,7.3 0.2,9.6c0,1.2 0,2.1 0,2.7c0,0.6 0,1 0,1l-5.2,-0.6z" id="svg_58"/>
    </g>
    <g id="svg_59">
     <path class="st2" d="m445.1,189.7c0,0 -0.2,-0.4 -0.7,-1.1c-0.4,-0.7 -1,-1.8 -1.8,-3.2c-1.5,-2.8 -3.7,-6.7 -6.1,-11.6c-1.2,-2.4 -2.5,-5 -3.8,-7.8c-1.3,-2.8 -2.6,-5.8 -4,-8.9c-1.3,-3.1 -2.7,-6.3 -3.9,-9.6c-1.3,-3.3 -2.5,-6.7 -3.7,-10.1c-0.6,-1.7 -1.1,-3.4 -1.7,-5.1c-0.5,-1.7 -1,-3.4 -1.5,-5.1c-0.9,-3.4 -1.8,-6.8 -2.4,-10.1c-0.3,-1.7 -0.7,-3.3 -0.9,-4.9c-0.1,-0.8 -0.2,-1.6 -0.4,-2.4c-0.1,-0.8 -0.2,-1.6 -0.3,-2.3c-0.1,-0.8 -0.2,-1.5 -0.3,-2.3c0,-0.7 -0.1,-1.5 -0.1,-2.2c0,-0.7 -0.1,-1.4 -0.1,-2.1c0,-0.7 0,-1.4 0,-2.1c0,-0.7 0,-1.3 0,-2c0,-0.6 0.1,-1.3 0.1,-1.9c0.1,-1.2 0.1,-2.4 0.2,-3.5c0.1,-1.1 0.2,-2.1 0.4,-3c0.2,-0.9 0.4,-1.8 0.5,-2.5c0.1,-0.4 0.2,-0.7 0.2,-1.1c0.1,-0.3 0.2,-0.6 0.3,-0.9c0.2,-0.6 0.3,-1.1 0.4,-1.5c0.2,-0.8 0.4,-1.2 0.4,-1.2s-0.1,0.4 -0.3,1.2c-0.1,0.4 -0.2,0.9 -0.4,1.5c-0.1,0.3 -0.1,0.6 -0.2,0.9c-0.1,0.3 -0.1,0.7 -0.2,1.1c-0.1,0.8 -0.3,1.6 -0.4,2.6c-0.1,0.9 -0.2,2 -0.2,3c-0.1,1.1 -0.1,2.2 -0.1,3.5c0,0.6 0,1.2 0,1.9c0,0.6 0.1,1.3 0.1,2c0,0.7 0.1,1.3 0.1,2c0.1,0.7 0.2,1.4 0.2,2.1c0.1,0.7 0.2,1.4 0.2,2.2c0.1,0.7 0.2,1.5 0.4,2.2c0.1,0.8 0.2,1.5 0.4,2.3c0.2,0.8 0.3,1.5 0.5,2.3c0.3,1.6 0.7,3.2 1.1,4.8c0.8,3.2 1.8,6.5 2.8,9.9c0.6,1.7 1.1,3.3 1.7,5c0.6,1.7 1.2,3.3 1.9,5c1.3,3.3 2.6,6.6 4,9.8c1.4,3.2 2.9,6.3 4.3,9.3c1.5,3 2.9,5.9 4.3,8.6c1.4,2.7 2.8,5.3 4.1,7.6c2.6,4.7 4.9,8.5 6.5,11.1c0.8,1.3 1.5,2.3 1.9,3c0.4,0.7 0.7,1.1 0.7,1.1l-4.2,2.5z" id="svg_60"/>
    </g>
    <g id="svg_61">
     <path class="st2" d="m444,194c0,0 -0.1,0 -0.2,-0.1c-0.1,-0.1 -0.3,-0.2 -0.6,-0.3c-0.5,-0.2 -1.4,-0.6 -2.4,-0.9c-0.5,-0.1 -1.1,-0.3 -1.6,-0.5c-0.6,-0.2 -1.2,-0.3 -1.9,-0.4c-0.7,-0.2 -1.3,-0.2 -2,-0.3c-0.7,-0.1 -1.4,-0.1 -2.1,-0.1c-0.7,0 -1.4,0 -2.1,0.1c-0.7,0.1 -1.4,0.1 -2.1,0.3c-0.7,0.1 -1.3,0.3 -1.9,0.5c-0.6,0.2 -1.2,0.4 -1.6,0.7c-0.5,0.3 -1,0.5 -1.4,0.7c-0.4,0.3 -0.7,0.5 -1,0.7c-0.5,0.4 -0.9,0.6 -0.9,0.6s0.3,-0.3 0.7,-0.8c0.2,-0.2 0.5,-0.5 0.8,-0.9c0.4,-0.3 0.8,-0.6 1.2,-1c0.4,-0.4 1,-0.7 1.6,-1.1c0.6,-0.4 1.2,-0.7 1.9,-1c0.7,-0.3 1.4,-0.6 2.1,-0.8c0.7,-0.3 1.5,-0.4 2.3,-0.6c0.8,-0.1 1.6,-0.3 2.4,-0.4c0.8,-0.1 1.6,-0.1 2.3,-0.1c0.8,0 1.5,0 2.2,0c0.7,0 1.3,0.1 1.9,0.1c1.2,0.1 2.2,0.3 2.9,0.4c0.3,0.1 0.7,0.1 0.9,0.2c0.2,0 0.3,0.1 0.3,0.1l-1.7,4.9z" id="svg_62"/>
    </g>
    <circle class="st2" cx="438.9" cy="76.1" id="svg_63" r="5.4"/>
   </g>
   <g id="Hojas_2_1_">
    <path class="st4" d="m494.5,219.6c-35,-35.3 -12,-96.3 15.9,-98.1c-1.5,13 2.5,25.3 6.1,33.6c1.8,4 4.7,18.8 2.5,25.8c7.9,-14 30.2,-15.8 40.4,-12.3c3.9,14.3 -8.9,35.2 -22.7,41.3c9.9,1 16.3,13 21.3,14.4c2.6,0.7 6.5,0.1 6.8,-3.4c0.2,-2.7 -1.5,-4.2 -3.5,-4.3c-1.4,-0.1 -4.7,1.2 -4.8,4l-0.6,0c-2.1,-18.8 30.5,-8.7 26.8,12.5c-2.3,13.4 -11.4,19.7 -30.5,16.5c-23.1,-3.7 -40.1,-29.8 -57.7,-30z" id="svg_64"/>
    <path class="st2" d="m488.9,213.1c1.9,-2.2 4.7,-3.6 7.8,-3.6c5.7,0 10.3,4.6 10.3,10.3c0,1.2 -0.2,2.3 -0.6,3.4c-4,-2.1 -8,-3.5 -11.9,-3.6c-2,-2.1 -3.9,-4.3 -5.6,-6.5z" id="svg_65"/>
    <g id="svg_66">
     <path class="st2" d="m490.9,213.1c0,0 0,-0.3 -0.1,-0.8c-0.1,-0.5 -0.2,-1.3 -0.3,-2.2c-0.1,-1 -0.2,-2.1 -0.4,-3.4c-0.1,-1.3 -0.2,-2.8 -0.4,-4.5c-0.1,-1.6 -0.2,-3.4 -0.3,-5.3c-0.1,-1.9 -0.2,-3.8 -0.2,-5.9c0,-1 0,-2.1 0,-3.1c0,-1.1 0,-2.1 0,-3.2c0,-2.1 0.1,-4.3 0.2,-6.5c0.1,-2.2 0.3,-4.3 0.5,-6.5c0.3,-2.1 0.5,-4.2 0.8,-6.2c0.4,-2 0.7,-3.9 1.1,-5.8c0.5,-1.8 0.9,-3.5 1.3,-5.1c0.5,-1.5 1,-3 1.4,-4.2c0.1,-0.3 0.2,-0.6 0.3,-0.9c0.1,-0.3 0.2,-0.6 0.4,-0.8c0.2,-0.5 0.5,-1 0.6,-1.4c0.8,-1.7 1.2,-2.7 1.2,-2.7s-0.4,1 -1,2.8c-0.2,0.4 -0.3,0.9 -0.5,1.5c-0.1,0.3 -0.2,0.5 -0.3,0.8c-0.1,0.3 -0.2,0.6 -0.2,0.9c-0.3,1.3 -0.7,2.7 -1.1,4.3c-0.3,1.6 -0.6,3.3 -0.9,5.1c-0.3,1.8 -0.4,3.8 -0.7,5.7c-0.1,2 -0.3,4.1 -0.4,6.2c0,2.1 -0.1,4.2 0,6.4c0.1,2.1 0.1,4.3 0.2,6.4c0.1,1.1 0.1,2.1 0.2,3.1c0.1,1 0.2,2 0.3,3c0.2,2 0.4,3.9 0.6,5.7c0.2,1.8 0.5,3.5 0.7,5.1c0.3,1.6 0.5,3 0.7,4.3c0.2,1.3 0.4,2.4 0.6,3.3c0.2,0.9 0.3,1.6 0.4,2.1c0.1,0.5 0.2,0.7 0.2,0.7l-4.9,1.1z" id="svg_67"/>
    </g>
    <g id="svg_68">
     <path class="st2" d="m495.6,212c0,0 0.9,-2.6 2.1,-6.6c1.2,-4 2.7,-9.4 4,-14.8c0.7,-2.7 1.3,-5.4 1.9,-8c0.6,-2.6 1.1,-5 1.5,-7c0.4,-2.1 0.7,-3.8 0.9,-5c0.2,-1.2 0.3,-1.9 0.3,-1.9s0,0.7 -0.1,1.9c-0.1,1.2 -0.2,3 -0.4,5.1c-0.2,2.1 -0.4,4.5 -0.7,7.2c-0.3,2.6 -0.6,5.4 -1,8.2c-0.7,5.6 -1.6,11.1 -2.4,15.3c-0.7,4.2 -1.3,7 -1.3,7l-4.8,-1.4z" id="svg_69"/>
    </g>
    <g id="svg_70">
     <path class="st2" d="m499.4,213.1c0,0 0.6,-0.6 1.6,-1.7c1,-1.1 2.5,-2.6 4.3,-4.5c1.8,-1.8 3.9,-3.9 6.2,-6.1c1.2,-1.1 2.4,-2.2 3.6,-3.3c1.2,-1.1 2.5,-2.2 3.8,-3.3c1.3,-1.1 2.6,-2.2 3.9,-3.2c1.3,-1.1 2.6,-2 3.9,-3c1.3,-1 2.6,-1.8 3.7,-2.7c1.2,-0.8 2.4,-1.5 3.5,-2.2c1.1,-0.7 2.1,-1.2 3,-1.7c0.9,-0.5 1.7,-0.9 2.4,-1.2c1.3,-0.6 2.1,-0.9 2.1,-0.9s-0.7,0.4 -2,1.1c-0.6,0.4 -1.4,0.8 -2.3,1.4c-0.8,0.6 -1.8,1.2 -2.8,1.9c-1,0.8 -2.1,1.6 -3.2,2.5c-1.1,0.9 -2.3,1.9 -3.4,2.9c-1.1,1.1 -2.4,2.1 -3.5,3.3c-1.2,1.2 -2.4,2.3 -3.5,3.5c-1.2,1.2 -2.3,2.4 -3.4,3.6c-1.1,1.2 -2.2,2.4 -3.2,3.6c-2.1,2.4 -3.9,4.6 -5.5,6.5c-1.6,1.9 -2.9,3.6 -3.8,4.7c-0.9,1.2 -1.4,1.8 -1.4,1.8l-4,-3z" id="svg_71"/>
    </g>
    <g id="svg_72">
     <path class="st2" d="m503.3,215c0,0 2.1,-0.7 5.1,-2c1.5,-0.6 3.3,-1.4 5.2,-2.3c0.9,-0.5 1.9,-0.9 2.9,-1.4c1,-0.5 2,-1 2.9,-1.6c1.9,-1.1 3.9,-2.2 5.6,-3.3c0.9,-0.6 1.7,-1.1 2.5,-1.6c0.8,-0.5 1.6,-1 2.2,-1.6c0.7,-0.5 1.3,-1 1.8,-1.4c0.5,-0.4 1,-0.8 1.4,-1.1c0.8,-0.6 1.2,-1 1.2,-1s-0.4,0.4 -1.1,1.1c-0.4,0.3 -0.8,0.8 -1.3,1.2c-0.5,0.5 -1.1,1 -1.7,1.5c-0.6,0.6 -1.3,1.1 -2.1,1.7c-0.7,0.6 -1.6,1.2 -2.4,1.9c-1.7,1.3 -3.5,2.6 -5.4,3.8c-0.9,0.6 -1.9,1.2 -2.8,1.8c-1,0.6 -1.9,1.1 -2.8,1.7c-1.8,1.1 -3.6,2 -5.1,2.8c-3,1.6 -5.1,2.5 -5.1,2.5l-1,-2.7z" id="svg_73"/>
    </g>
    <g id="svg_74">
     <path class="st2" d="m503.6,217.5c0,0 0.3,0 0.8,-0.1c0.5,0 1.2,-0.1 2.1,-0.1c0.9,0 2,0 3.3,0c1.3,0 2.7,0.1 4.2,0.3c0.8,0.1 1.6,0.2 2.4,0.3c0.8,0.1 1.7,0.3 2.5,0.4c0.9,0.2 1.7,0.4 2.6,0.6c0.9,0.2 1.8,0.5 2.7,0.8c1.8,0.6 3.7,1.3 5.5,2.1c0.9,0.4 1.8,0.9 2.7,1.4l1.3,0.7l1.3,0.8c1.7,1.1 3.3,2.4 4.9,3.6c1.5,1.3 2.9,2.5 4.4,3.6c1.5,1.1 3,2.1 4.5,2.9c1.5,0.8 2.9,1.5 4.3,2c2.8,1 5.2,1.4 7,1.5c0.9,0.1 1.5,0 2,0c0.5,0 0.7,0 0.7,0s-0.2,0 -0.7,0.1c-0.5,0 -1.1,0.1 -2,0.1c-1.7,0 -4.3,-0.2 -7.2,-1.1c-1.5,-0.4 -3,-1 -4.5,-1.8c-1.6,-0.7 -3.2,-1.6 -4.8,-2.6c-1.6,-1 -3.2,-2.2 -4.8,-3.4c-1.6,-1.1 -3.1,-2.3 -4.9,-3.2l-1.3,-0.7l-1.3,-0.6c-0.9,-0.4 -1.7,-0.8 -2.6,-1.1c-1.8,-0.7 -3.6,-1.2 -5.3,-1.7c-0.9,-0.2 -1.8,-0.4 -2.6,-0.6c-0.9,-0.1 -1.7,-0.3 -2.5,-0.4c-0.8,-0.1 -1.6,-0.2 -2.4,-0.3c-0.8,-0.1 -1.5,-0.1 -2.3,-0.1c-1.4,-0.1 -2.8,-0.1 -3.9,0c-1.2,0 -2.2,0.1 -3,0.2c-0.8,0.1 -1.5,0.2 -1.9,0.2c-0.4,0.1 -0.7,0.1 -0.7,0.1l-0.5,-3.9z" id="svg_75"/>
    </g>
    <circle class="st2" cx="560.5" cy="221.1" id="svg_76" r="3.7"/>
   </g>
   <g id="Hojas_3_2_">
    <path class="st4" d="m521,247.8c0.8,11.8 -24,31 -23.1,66.5c0.7,29.9 20.8,56.7 36.9,65.5c-9,-21.9 14.4,-52.1 12.3,-84.6c-1.5,-22.6 -9.4,-36.9 -26.1,-47.4z" id="svg_77"/>
    <path class="st2" d="m521,247.8c3.6,2.3 6.9,4.8 9.7,7.5c-1.7,2.6 -4.6,4.4 -7.9,4.4c-1.9,0 -3.7,-0.6 -5.2,-1.5c2.2,-4.1 3.6,-7.5 3.4,-10.4z" id="svg_78"/>
    <g id="svg_79">
     <path class="st2" d="m527.7,255.1c0,0 0,0.1 0.1,0.2c0.1,0.2 0.2,0.4 0.3,0.8c0.3,0.7 0.6,1.6 1,2.8c0.4,1.2 0.7,2.7 1.1,4.4c0.2,0.8 0.3,1.7 0.5,2.7c0.2,0.9 0.3,1.9 0.5,3c0.1,0.5 0.2,1.1 0.2,1.6c0.1,0.5 0.1,1.1 0.2,1.7c0.1,1.1 0.2,2.3 0.3,3.5c0.1,1.2 0.1,2.4 0.2,3.7c0,0.6 0.1,1.3 0.1,1.9c0,0.6 0,1.3 0,1.9c0,1.3 0,2.6 0,4c0,1.3 -0.1,2.7 -0.1,4.1c-0.1,1.4 -0.1,2.7 -0.2,4.1c-0.1,1.4 -0.2,2.8 -0.3,4.1c-0.2,2.8 -0.5,5.5 -0.8,8.2c-0.2,1.4 -0.3,2.7 -0.5,4c-0.2,1.3 -0.4,2.6 -0.6,3.9c-0.4,2.6 -0.7,5 -1.2,7.4c-0.4,2.3 -0.9,4.5 -1.3,6.6c-0.4,2 -0.8,3.9 -1.2,5.5c-0.4,1.6 -0.7,3.1 -1,4.2c-0.5,2.3 -0.8,3.7 -0.8,3.7s0.2,-1.4 0.7,-3.7c0.2,-1.2 0.5,-2.6 0.8,-4.3c0.3,-1.7 0.7,-3.5 0.9,-5.6c0.3,-2 0.6,-4.3 1,-6.6c0.4,-2.3 0.6,-4.8 0.9,-7.4c0.1,-1.3 0.3,-2.6 0.4,-3.9c0.1,-1.3 0.2,-2.7 0.3,-4c0.2,-2.7 0.4,-5.4 0.4,-8.2c0,-1.4 0.1,-2.7 0.1,-4.1c0,-1.4 0,-2.7 0,-4.1c0,-1.3 0,-2.7 -0.1,-4c-0.1,-1.3 -0.1,-2.6 -0.2,-3.9c0,-0.6 -0.1,-1.3 -0.1,-1.9c-0.1,-0.6 -0.1,-1.2 -0.2,-1.9c-0.1,-1.2 -0.2,-2.4 -0.4,-3.6c-0.2,-1.2 -0.3,-2.3 -0.5,-3.4c-0.1,-0.5 -0.2,-1.1 -0.2,-1.6c-0.1,-0.5 -0.2,-1 -0.3,-1.5c-0.2,-1 -0.4,-2 -0.6,-2.8c-0.2,-0.9 -0.4,-1.7 -0.6,-2.5c-0.4,-1.6 -0.8,-2.9 -1.2,-4c-0.4,-1.1 -0.7,-1.9 -1,-2.4c-0.1,-0.2 -0.2,-0.4 -0.3,-0.6c-0.1,-0.1 -0.1,-0.2 -0.1,-0.2l3.8,-1.8z" id="svg_80"/>
    </g>
    <g id="svg_81">
     <path class="st2" d="m524.5,257.5c0,0 -1.2,4.4 -2.7,11.1c-0.4,1.7 -0.8,3.5 -1.2,5.4c-0.4,1.9 -0.8,4 -1.2,6.1c-0.4,2.1 -0.8,4.3 -1.1,6.5c-0.4,2.2 -0.7,4.5 -1,6.8c-0.3,2.3 -0.6,4.5 -0.8,6.8c-0.2,2.2 -0.5,4.4 -0.6,6.6c-0.1,2.1 -0.3,4.2 -0.4,6.2c-0.1,2 -0.1,3.8 -0.1,5.5c0,1.7 0,3.3 0.1,4.7c0,1.4 0.1,2.6 0.2,3.6c0.1,2 0.2,3.2 0.2,3.2s-0.1,-1.1 -0.4,-3.1c-0.1,-1 -0.3,-2.2 -0.4,-3.6c-0.1,-1.4 -0.2,-3 -0.3,-4.7c-0.1,-1.7 -0.1,-3.6 -0.2,-5.6c0,-2 0,-4.1 0,-6.2c0,-2.2 0.2,-4.4 0.3,-6.7c0.1,-2.3 0.3,-4.6 0.5,-6.9c0.2,-2.3 0.4,-4.6 0.7,-6.9c0.3,-2.3 0.5,-4.5 0.8,-6.6c0.3,-2.1 0.6,-4.2 0.9,-6.2c0.3,-2 0.6,-3.8 0.9,-5.5c1.1,-6.8 2.1,-11.4 2.1,-11.4l3.7,0.9z" id="svg_82"/>
    </g>
   </g>
   <g id="Hojas_4_2_">
    <path class="st4" d="m507.5,376.4c1.3,5.6 23.5,24.5 39.6,23.6s18.6,-9.6 18.5,-13.1s-2.5,-6.2 -5.6,-6.6c-3.4,-0.5 -7.2,1.3 -6.9,4s4.8,5.6 10.4,3.5l0.3,0.9c-16,6.5 -19.3,-15.9 -1.5,-15.9c13.5,0 23.3,14.4 23.3,30.4c0,16.8 -13.1,37.5 -37.1,36c-49.2,-3.2 -43.5,-58.2 -41,-62.8z" id="svg_83"/>
    <path class="st2" d="m513.9,384.4c0,0 0,0.1 0,0.1c0,5.3 -3.1,9.9 -7.6,12.1c-1.1,-10.1 0.3,-18.5 1.2,-20.2c0.4,1.7 2.8,4.7 6.4,8z" id="svg_84"/>
    <g id="svg_85">
     <path class="st2" d="m512.4,389.4c0,0 0.1,0.3 0.3,0.8c0.1,0.3 0.2,0.6 0.3,1c0.1,0.3 0.3,0.7 0.4,1.2c0.1,0.4 0.4,0.9 0.6,1.5c0.2,0.5 0.5,1.1 0.8,1.8c0.3,0.6 0.7,1.3 1.1,2c0.4,0.7 0.8,1.4 1.3,2.1c0.9,1.5 2.1,3 3.3,4.5c1.3,1.5 2.7,3.1 4.3,4.6c1.6,1.5 3.3,3 5.2,4.2c1.9,1.3 3.9,2.5 6,3.5c2.1,1 4.3,1.8 6.6,2.3c2.2,0.5 4.5,0.8 6.7,0.7c2.2,0 4.3,-0.3 6.3,-0.9c2,-0.5 3.7,-1.3 5.3,-2.1c1.6,-0.9 2.9,-1.8 4.1,-2.7c0.3,-0.2 0.6,-0.4 0.8,-0.6c0.3,-0.2 0.5,-0.4 0.7,-0.7c0.5,-0.4 0.9,-0.8 1.3,-1.2c0.7,-0.7 1.3,-1.4 1.7,-1.8c0.4,-0.4 0.6,-0.6 0.6,-0.6s-0.2,0.2 -0.6,0.7c-0.4,0.4 -0.9,1.1 -1.6,1.9c-0.4,0.4 -0.8,0.8 -1.2,1.2c-0.2,0.2 -0.5,0.5 -0.7,0.7c-0.3,0.2 -0.5,0.5 -0.8,0.7c-1.1,1 -2.4,2 -4,3c-1.6,0.9 -3.3,1.9 -5.4,2.6c-2,0.7 -4.2,1.2 -6.5,1.4c-2.3,0.2 -4.7,0 -7.2,-0.3c-2.4,-0.4 -4.8,-1.1 -7.1,-2c-2.3,-0.9 -4.5,-2.1 -6.6,-3.3c-2.1,-1.2 -4,-2.7 -5.9,-4.2c-1.8,-1.5 -3.5,-3 -4.9,-4.6c-1.5,-1.6 -2.8,-3.1 -3.9,-4.6c-0.6,-0.8 -1.1,-1.5 -1.6,-2.2c-0.5,-0.7 -0.9,-1.4 -1.3,-2.1c-0.4,-0.7 -0.8,-1.3 -1.1,-1.9c-0.3,-0.6 -0.6,-1.1 -0.8,-1.7c-0.2,-0.5 -0.4,-1 -0.6,-1.4c-0.1,-0.4 -0.3,-0.7 -0.4,-1c-0.2,-0.5 -0.3,-0.8 -0.3,-0.8l4.8,-1.7z" id="svg_86"/>
    </g>
    <ellipse class="st2" cx="559" cy="384.7" id="svg_87" rx="5.3" ry="3.4"/>
   </g>
   <g id="Hojas_5_2_">
    <path class="st4" d="m510,437.5c-4.9,19.6 -7.2,33.7 -1.8,54.6c5.9,22.5 32.8,39.1 44.6,68.1c19.9,-19 17,-56.4 8.9,-72.1c-17.4,-33.7 -43.7,-40.3 -51.7,-50.6z" id="svg_88"/>
    <path class="st2" d="m510,437.5c2.6,3.4 7.2,6.3 12.8,10c-2.6,4.9 -7.7,8.3 -13.6,8.3c-1,0 -2,-0.1 -2.9,-0.3c0.8,-5.7 2.1,-11.6 3.7,-18z" id="svg_89"/>
    <g id="svg_90">
     <path class="st2" d="m517.4,447.5c0,0 0.2,0.2 0.7,0.7c0.5,0.5 1.1,1.2 1.9,2.1c0.8,0.9 1.7,2 2.8,3.3c1,1.3 2.2,2.7 3.4,4.4c1.2,1.6 2.5,3.4 3.8,5.3c1.3,1.9 2.6,4 4,6.1c0.6,1.1 1.3,2.2 2,3.3c0.7,1.1 1.3,2.3 1.9,3.4c0.6,1.2 1.2,2.4 1.9,3.5c0.6,1.2 1.2,2.4 1.8,3.6c0.6,1.2 1.1,2.4 1.7,3.7c0.5,1.2 1,2.5 1.5,3.7c0.5,1.2 1,2.4 1.4,3.7c0.4,1.2 0.8,2.4 1.2,3.6c0.4,1.2 0.8,2.4 1.1,3.5c0.3,1.2 0.6,2.3 0.9,3.4c0.3,1.1 0.6,2.2 0.9,3.2c0.2,1.1 0.4,2.1 0.6,3.1c0.4,2 0.8,3.8 1,5.4c0.2,1.6 0.4,3 0.5,4.2c0.3,2.3 0.4,3.6 0.4,3.6s-0.2,-1.3 -0.6,-3.6c-0.2,-1.1 -0.5,-2.5 -0.7,-4.1c-0.3,-1.6 -0.8,-3.4 -1.3,-5.3c-0.3,-1 -0.5,-2 -0.8,-3c-0.3,-1 -0.7,-2.1 -1.1,-3.2c-0.4,-1.1 -0.7,-2.2 -1.1,-3.3c-0.4,-1.1 -0.9,-2.3 -1.3,-3.4c-0.5,-1.2 -0.9,-2.3 -1.4,-3.5c-0.5,-1.2 -1.1,-2.3 -1.6,-3.5c-0.6,-1.2 -1.1,-2.4 -1.7,-3.6c-0.6,-1.2 -1.3,-2.3 -1.9,-3.5c-0.6,-1.2 -1.2,-2.3 -1.9,-3.5c-0.7,-1.1 -1.4,-2.3 -2,-3.4c-0.7,-1.1 -1.4,-2.2 -2.1,-3.3c-0.7,-1.1 -1.4,-2.1 -2.1,-3.1c-1.5,-2 -2.8,-4 -4.2,-5.7c-1.4,-1.8 -2.7,-3.5 -4,-5c-1.3,-1.5 -2.5,-2.9 -3.5,-4c-1.1,-1.2 -2,-2.2 -2.8,-3c-0.8,-0.8 -1.4,-1.4 -1.9,-1.8c-0.4,-0.4 -0.7,-0.6 -0.7,-0.6l3.3,-3.4z" id="svg_91"/>
    </g>
    <g id="svg_92">
     <path class="st2" d="m514,451.2c0,0 0,0.3 0.1,0.7c0,0.5 0.2,1.2 0.3,2.1c0.1,0.9 0.3,2.1 0.6,3.4c0.2,1.3 0.6,2.8 0.9,4.4c0.4,1.6 0.8,3.3 1.4,5.1c0.5,1.8 1.1,3.7 1.7,5.7c0.6,2 1.4,4 2.1,6c0.8,2 1.6,4.1 2.4,6.1c0.9,2 1.7,4.1 2.6,6.1c0.9,2 1.8,3.9 2.7,5.8c0.9,1.9 1.8,3.7 2.7,5.4c0.9,1.7 1.8,3.3 2.6,4.7c0.8,1.5 1.5,2.8 2.2,4c0.7,1.2 1.3,2.2 1.8,3c1,1.7 1.6,2.6 1.6,2.6s-0.6,-0.9 -1.7,-2.5c-0.6,-0.8 -1.2,-1.8 -2,-2.9c-0.8,-1.1 -1.6,-2.4 -2.5,-3.8c-0.9,-1.4 -1.9,-2.9 -2.9,-4.6c-1,-1.6 -2,-3.4 -3.1,-5.2c-1.1,-1.8 -2.1,-3.7 -3.1,-5.6c-1.1,-1.9 -2,-3.9 -3.1,-5.9c-1,-2 -1.9,-4 -2.9,-6c-0.9,-2 -1.8,-4 -2.5,-6c-0.8,-2 -1.5,-3.9 -2.2,-5.7c-0.7,-1.8 -1.2,-3.6 -1.8,-5.2c-0.5,-1.6 -1,-3.1 -1.3,-4.5c-0.4,-1.3 -0.7,-2.5 -0.9,-3.5c-0.2,-1 -0.4,-1.7 -0.5,-2.3c-0.1,-0.5 -0.1,-0.8 -0.1,-0.8l4.9,-0.6z" id="svg_93"/>
    </g>
   </g>
   <g id="Hojas_6_1_">
    <path class="st4" d="m493.7,515.6c-6.5,27.5 -14.8,63.4 -39.7,69.1c12.1,16.6 44.2,15.3 51.1,-7.8c4.1,19.3 9.9,23.7 12,36.9c1.8,11.4 -11.3,16 -16.3,10.3c-3.5,-4 2.7,-8 7.2,-5.1c2,1.3 3.6,4.8 3.6,4.8l0.7,-0.5c-0.1,-3 -4.6,-7 -8.2,-7.1c-3.2,-0.1 -6,2.1 -6.2,6.9c-0.3,12.2 19.5,18.2 35.3,-0.8c20.8,-25.1 13.2,-74.7 -39.5,-106.7z" id="svg_94"/>
    <path class="st2" d="m493.7,515.6c5.7,3.4 10.8,7.1 15.5,10.9c-3,2.7 -6.9,4.3 -11.2,4.3c-2.7,0 -5.3,-0.7 -7.6,-1.8c1.2,-4.6 2.3,-9.1 3.3,-13.4z" id="svg_95"/>
    <g id="svg_96">
     <path class="st2" d="m503.3,525.3c0,0 0.2,0.2 0.5,0.7c0.3,0.5 0.8,1.1 1.3,1.9c0.6,0.8 1.2,1.8 1.9,3c0.7,1.2 1.5,2.5 2.4,4c0.8,1.5 1.7,3.1 2.6,4.8c0.9,1.7 1.8,3.5 2.7,5.4c0.9,1.9 1.8,3.9 2.7,5.9c0.4,1 0.8,2.1 1.2,3.1c0.4,1 0.8,2.1 1.2,3.1c0.7,2.1 1.5,4.2 2.1,6.3c0.3,1.1 0.6,2.1 0.9,3.1c0.3,1 0.5,2.1 0.8,3.1c0.2,1 0.5,2 0.7,3c0.2,1 0.4,2 0.5,2.9c0.3,1.9 0.7,3.7 0.8,5.3c0.2,1.7 0.3,3.2 0.5,4.5c0,1.4 0.1,2.5 0.1,3.5c0.1,1.9 0.1,3.1 0.1,3.1s-0.1,-1.1 -0.3,-3c-0.1,-1 -0.2,-2.1 -0.4,-3.5c-0.2,-1.3 -0.5,-2.8 -0.8,-4.5c-0.2,-1.6 -0.7,-3.4 -1.2,-5.2c-0.2,-0.9 -0.5,-1.9 -0.7,-2.8c-0.3,-0.9 -0.6,-1.9 -0.9,-2.9c-0.3,-1 -0.6,-2 -1,-3c-0.4,-1 -0.8,-2 -1.1,-3c-0.7,-2 -1.6,-4 -2.5,-6.1c-0.4,-1 -0.9,-2 -1.4,-3c-0.5,-1 -1,-2 -1.4,-2.9c-1,-1.9 -2,-3.8 -3,-5.6c-1,-1.8 -2,-3.5 -3,-5.1c-1,-1.6 -2,-3.1 -2.9,-4.5c-0.9,-1.4 -1.8,-2.6 -2.6,-3.7c-0.8,-1.1 -1.5,-2 -2.1,-2.8c-0.6,-0.8 -1,-1.3 -1.3,-1.7c-0.3,-0.4 -0.5,-0.6 -0.5,-0.6l4.1,-2.8z" id="svg_97"/>
    </g>
    <g id="svg_98">
     <path class="st2" d="m498.7,526.5c0,0 0,0.2 0.1,0.7c0,0.4 0.1,1.1 0.1,1.9c0.1,1.7 0.1,4 0.1,6.9c-0.1,5.7 -0.7,13.2 -2.5,20.6c-0.4,1.8 -1,3.6 -1.5,5.4c-0.6,1.8 -1.2,3.5 -1.9,5.1c-1.4,3.2 -3,6.1 -4.6,8.4c-0.4,0.6 -0.8,1.1 -1.2,1.6c-0.4,0.5 -0.8,1 -1.2,1.4c-0.7,0.9 -1.5,1.5 -2,2.1c-1.2,1.1 -1.9,1.7 -1.9,1.7s0.6,-0.7 1.7,-1.9c0.5,-0.6 1.2,-1.4 1.8,-2.3c0.3,-0.5 0.7,-0.9 1,-1.5c0.3,-0.5 0.7,-1.1 1,-1.7c1.4,-2.4 2.7,-5.3 3.8,-8.5c0.5,-1.6 1,-3.3 1.4,-5.1c0.4,-1.8 0.8,-3.5 1,-5.3c1.1,-7.2 1.1,-14.5 0.8,-20c-0.2,-2.7 -0.4,-5 -0.6,-6.5c-0.1,-0.8 -0.2,-1.4 -0.3,-1.8c-0.1,-0.4 -0.1,-0.6 -0.1,-0.6l5,-0.6z" id="svg_99"/>
    </g>
    <ellipse class="st2" cx="505.6" cy="622.5" id="svg_100" rx="5.7" ry="3.6"/>
   </g>
   <g id="Hojas_7_1_">
    <path class="st4" d="m354.4,634c10.8,-2.6 61.5,-29 91.7,-30c25.3,-0.9 43.8,18.9 44.3,32c0.4,9.5 -4,13.9 -10.3,14.2c-4,0.2 -7.2,-2.3 -7.4,-5.8c-0.1,-2.7 1.8,-6.5 7.8,-5.8l0.1,0.6c-6,-0.2 -9,4.5 -5.2,8.3c1.4,1.4 4.6,1.5 6.3,-1.3c3.4,-5.6 -0.4,-12.8 -9.6,-12.6c-13.2,0.4 -36.2,21.9 -66.5,21.9c-19.1,0 -41.4,-10.2 -51.2,-21.5z" id="svg_101"/>
    <path class="st2" d="m370,641.1c0,1.5 -0.3,3 -0.7,4.3c-6.1,-3.4 -11.3,-7.3 -14.9,-11.4c2,-0.5 5.5,-1.8 10,-3.7c3.4,2.4 5.6,6.3 5.6,10.8z" id="svg_102"/>
    <g id="svg_103">
     <path class="st2" d="m365.6,632.8c0,0 0.4,0 1.1,0c0.7,0 1.7,-0.1 3,-0.2c2.6,-0.2 6.3,-0.4 10.8,-0.9c2.2,-0.2 4.7,-0.5 7.2,-0.8c2.6,-0.3 5.2,-0.7 8,-1.2c2.8,-0.5 5.6,-1 8.5,-1.7c1.4,-0.3 2.9,-0.7 4.3,-1.1c1.4,-0.4 2.9,-0.8 4.3,-1.3c2.9,-0.9 5.9,-1.7 8.8,-2.3c2.9,-0.6 5.8,-1.2 8.6,-1.7c5.6,-0.9 10.9,-1.5 15.4,-1.8c4.5,-0.3 8.3,-0.2 11,0.2c1.3,0.2 2.3,0.4 3,0.6c0.7,0.2 1,0.3 1,0.3s-0.4,-0.1 -1,-0.3c-0.7,-0.2 -1.7,-0.3 -3,-0.4c-2.6,-0.2 -6.4,-0.1 -10.9,0.4c-4.5,0.5 -9.7,1.4 -15.2,2.6c-2.7,0.6 -5.6,1.3 -8.4,2.1c-2.8,0.8 -5.7,1.7 -8.5,2.7c-1.4,0.5 -2.9,1 -4.3,1.5c-1.5,0.4 -2.9,0.9 -4.3,1.3c-2.9,0.8 -5.8,1.5 -8.5,2.1c-2.8,0.6 -5.5,1.2 -8.1,1.6c-2.6,0.5 -5,0.9 -7.3,1.2c-4.5,0.7 -8.3,1.2 -10.9,1.5c-1.3,0.1 -2.4,0.3 -3.1,0.3c-0.7,0.1 -1.1,0.1 -1.1,0.1l-0.4,-4.8z" id="svg_104"/>
    </g>
    <g id="svg_105">
     <path class="st2" d="m368.2,638c0,0 1.1,0.1 3,0.3c1.9,0.2 4.6,0.4 7.9,0.7c6.5,0.5 15.2,0.9 23.9,0.8c4.4,-0.1 8.7,-0.3 12.8,-0.6c2,-0.2 4,-0.4 5.8,-0.7c1.8,-0.3 3.6,-0.6 5.2,-0.9c0.8,-0.2 1.6,-0.4 2.3,-0.5c0.7,-0.2 1.4,-0.4 2,-0.6c1.3,-0.4 2.4,-0.8 3.2,-1.2c0.9,-0.3 1.6,-0.7 2,-0.9c0.5,-0.2 0.7,-0.3 0.7,-0.3s-0.2,0.1 -0.7,0.4c-0.4,0.3 -1.1,0.7 -2,1.1c-0.9,0.4 -1.9,0.9 -3.2,1.4c-0.6,0.2 -1.3,0.5 -2,0.7c-0.7,0.2 -1.5,0.5 -2.3,0.7c-1.6,0.5 -3.3,0.9 -5.2,1.3c-1.8,0.4 -3.8,0.8 -5.8,1.1c-4.1,0.7 -8.5,1.2 -12.8,1.5c-8.8,0.8 -17.6,1 -24.2,1c-3.3,0 -6.1,0 -8,-0.1c-1.9,-0.1 -3.1,-0.1 -3.1,-0.1l0.5,-5.1z" id="svg_106"/>
    </g>
    <circle class="st2" cx="478" cy="643.7" id="svg_107" r="5.4"/>
   </g>
  </g>
  <g id="Espiga_I">
   <path class="st2" d="m187.8,195.1c8.4,16.4 18,6.2 18.7,6c0.4,-0.1 14,1.9 9.8,-17.6c-2.1,4.2 -7.5,5.2 -9.8,8s-1.4,6.6 -1.4,6.6s-2.4,-2.3 -5.6,-3.1c-4.5,-1 -8.2,1.1 -11.7,0.1z" id="svg_108"/>
   <path class="st2" d="m183.5,179.9c4.4,15.7 14.9,8.8 15.6,8.8c0.4,0 12.2,4.3 12.1,-13.2c-2.7,3.2 -7.7,3 -10.2,5s-2.5,5.4 -2.5,5.4s-1.7,-2.5 -4.5,-3.7c-3.8,-1.8 -6.9,-0.2 -10.5,-2.3z" id="svg_109"/>
   <path class="st2" d="m183.8,167.6c1.9,17.8 25.3,14.2 23.4,-3.7c-2.7,3 -5.5,2.3 -7.9,4.1s-3.7,5.3 -3.7,5.3s-1,-2.5 -3,-3.9c-2.9,-1.9 -6.6,-0.2 -8.8,-1.8z" id="svg_110"/>
   <path class="st2" d="m185.7,154.4c-4.1,18.1 21.1,16.5 18.3,-0.4c-2.3,2.6 -4.1,1.6 -6.1,3.3c-2,1.6 -2.3,4.9 -2.3,4.9s-1.9,-2.3 -3.6,-3.5c-2.4,-1.8 -4.9,-1.3 -6.3,-4.3z" id="svg_111"/>
   <path class="st2" d="m189.1,148.4c0,4.3 1.9,6.6 5.6,6.6c2.2,0 4.2,-2.3 4.2,-6.2c0,-4.6 -3.4,-9.6 -2.8,-13.6c-3.5,2.2 -7,8.5 -7,13.2z" id="svg_112"/>
  </g>
  <g id="Espiga_D">
   <path class="st2" d="m400.9,195.1c-8.4,16.4 -18,6.2 -18.7,6c-0.4,-0.1 -14,1.9 -9.8,-17.6c2.1,4.2 7.5,5.2 9.8,8s1.4,6.6 1.4,6.6s2.4,-2.3 5.6,-3.1c4.4,-1 8.2,1.1 11.7,0.1z" id="svg_113"/>
   <path class="st2" d="m405.1,179.9c-4.4,15.7 -14.9,8.8 -15.6,8.8c-0.4,0 -12.2,4.3 -12.1,-13.2c2.7,3.2 7.7,3 10.2,5c2.5,2 2.5,5.4 2.5,5.4s1.7,-2.5 4.5,-3.7c3.8,-1.8 6.9,-0.2 10.5,-2.3z" id="svg_114"/>
   <path class="st2" d="m404.8,167.6c-1.9,17.8 -25.3,14.2 -23.4,-3.7c2.7,3 5.5,2.3 7.9,4.1c2.4,1.8 3.7,5.3 3.7,5.3s1,-2.5 3,-3.9c2.9,-1.9 6.6,-0.2 8.8,-1.8z" id="svg_115"/>
   <path class="st2" d="m402.9,154.4c4.1,18.1 -21.1,16.5 -18.3,-0.4c2.3,2.6 4.1,1.6 6.1,3.3c2,1.6 2.3,4.9 2.3,4.9s1.9,-2.3 3.6,-3.5c2.5,-1.8 5,-1.3 6.3,-4.3z" id="svg_116"/>
   <path class="st2" d="m399.5,148.4c0,4.3 -1.9,6.6 -5.6,6.6c-2.2,0 -4.2,-2.3 -4.2,-6.2c0,-4.6 3.4,-9.6 2.8,-13.6c3.5,2.2 7,8.5 7,13.2z" id="svg_117"/>
  </g>
  <g id="Condor">
   <path d="m275,163l6,0c0,0 -4.1,12.4 -3.8,14.9c0.4,2.6 12.9,1.9 9.4,11.7c0,0 -3.3,-8.1 -9.7,-7.1c-4.1,0.7 -8.5,12.8 -8.5,12.8c-6,-3.1 2.4,-10.8 0.6,-10.6c-3.4,0.3 -7.2,8.7 -7.2,8.7c-5.2,-4.3 4.5,-9 2.2,-9.9c-3.1,-1.3 -7.1,4.9 -7.1,4.9c-3.3,-7.8 12.8,-9.4 15,-11.2c2.2,-1.7 3.1,-14.2 3.1,-14.2z" fill="#000000" id="svg_118"/>
   <path d="m314.7,163l-6,0c0,0 4.1,12.4 3.8,14.9c-0.4,2.6 -12.9,1.9 -9.4,11.7c0,0 3.3,-8.1 9.7,-7.1c4.1,0.7 8.5,12.8 8.5,12.8c6,-3.1 -2.4,-10.8 -0.6,-10.6c3.4,0.3 7.2,8.7 7.2,8.7c5.2,-4.3 -4.5,-9 -2.2,-9.9c3.1,-1.3 7.1,4.9 7.1,4.9c3.3,-7.8 -12.8,-9.4 -15,-11.2s-3.1,-14.2 -3.1,-14.2z" fill="#000000" id="svg_119"/>
   <path d="m274.2,141.8c2,7 7.7,7.9 9.7,1.5c4.1,2.9 5.9,15.4 3.4,16.2c-3.5,1.1 -2.8,-7.2 -5.2,-7.4s-2.4,7.7 -4.7,7.4c-3.5,-0.4 -1.6,-8.5 -2.8,-9.2c-1.4,-0.8 -4.4,6.9 -7.1,4.9s2.8,-11.6 6.7,-13.4z" fill="#000000" id="svg_120"/>
   <path d="m314.9,141.8c-2,7 -7.7,7.9 -9.7,1.5c-4.1,2.9 -5.9,15.4 -3.4,16.2c3.5,1.1 2.8,-7.2 5.2,-7.4c2.4,-0.2 2.4,7.7 4.7,7.4c3.5,-0.4 1.6,-8.5 2.8,-9.2c1.4,-0.8 4.4,6.9 7.1,4.9s-2.8,-11.6 -6.7,-13.4z" fill="#000000" id="svg_121"/>
   <path d="m270.4,139.7c3.1,1.3 4.7,-4.7 6.1,-4.4c1.5,0.3 -1.1,8.4 2.3,8.4c3.5,0 2.7,-6.4 4.7,-6.8c1.5,-0.3 2,6.9 4.9,6.3c3.2,-0.6 2.3,-15.5 -6.8,-16.9c-8.7,-1.4 -15.3,11.6 -11.2,13.4z" fill="#000000" id="svg_122"/>
   <path d="m318.9,139.7c-3.1,1.3 -4.7,-4.7 -6.1,-4.4c-1.5,0.3 1.1,8.4 -2.3,8.4c-3.5,0 -2.7,-6.4 -4.7,-6.8c-1.5,-0.3 -2,6.9 -4.9,6.3c-3.2,-0.6 -2.3,-15.5 6.8,-16.9c8.7,-1.4 15.3,11.6 11.2,13.4z" fill="#000000" id="svg_123"/>
   <path d="m276.8,100.8c2.4,11 8.4,12.1 10.8,3.7c2.5,10.3 12,9.6 12.5,-1.1c4.2,9.3 11.2,9.3 11.3,-2.6c5.9,5.3 8,20.3 3.1,21.1c-3,0.5 -4.3,-7.1 -6.4,-6.1c-1.3,0.6 1.5,7.6 -3.6,8.1c-4.3,0.4 -3.5,-6.7 -5.4,-6.4c-1.5,0.2 0.5,9.2 -4.7,9.2c-4.8,0 -3.4,-9.1 -5.2,-9.2c-1.3,-0.1 -0.1,6.3 -4.5,6.3c-3.9,-0.1 -2.9,-7.9 -5.1,-8c-1.4,-0.1 -0.6,6.1 -5.1,6.3c-3.5,0.2 -2.7,-16.7 2.3,-21.3z" fill="#000000" id="svg_124"/>
   <path d="m269.8,87.9c2.6,-0.1 5.9,-3.1 6.7,-6.6c1.2,10 9.7,11.3 10.9,1.5c3.8,13 13.3,10.4 13.5,0.1c3.9,8.6 10.7,8.3 12.2,-1.2c1.1,3.3 3.4,6.6 5.4,6.3c1.6,7.1 1.4,11.9 -2.9,12.3c-4.2,0.4 -3.3,-8.1 -5.2,-7.6s0.8,8.8 -4.9,9.6c-4.3,0.6 -3.8,-7.6 -4.7,-7.4c-1.2,0.2 -0.5,10.2 -6.3,9.9c-5.4,-0.3 -4.1,-10.1 -5.4,-10.3c-1.4,-0.1 -0.7,7.2 -5.3,7.3c-4.3,0.1 -4.3,-9.3 -5.6,-9.3c-1.7,0 -1,7.6 -4.4,7.6c-3.4,-0.1 -4.6,-6 -4,-12.2z" fill="#000000" id="svg_125"/>
   <path d="m302.4,8.8c-0.9,-0.7 -1.5,-0.7 -2.3,-1.9c-0.8,-1.2 -0.5,-2.9 -2,-4.3c-1.5,-1.4 -12.8,-1.2 -14.4,1s-1,5.3 0.3,7.3c-2.3,-0.6 -6.3,0.2 -8.1,1.9c-1.7,1.6 -1.7,4.7 0.3,6.9c0.9,-1.4 1.8,-4 3.1,-3.9c1.3,0.1 1.1,1.5 2.3,2.8s4.1,0.1 5.4,0.9c1.3,0.9 2.3,3.3 2.5,4.8c0.1,0.8 0.8,1.1 1.4,1.1l7,0l0,1.6l-8,0c-0.2,4.2 -1.5,10.1 -2.9,13c3.6,4.9 13.3,4.7 16.2,-0.1c-1.9,-3.9 -2.3,-12.8 0.4,-16.5c3,-4 2.7,-11.5 -1.2,-14.6zm-7.9,5.5c-2,0 -3.5,-1.6 -3.5,-3.5s1.6,-3.5 3.5,-3.5s3.5,1.6 3.5,3.5s-1.6,3.5 -3.5,3.5z" fill="#000000" id="svg_126"/>
   <path d="m279.5,44c-2.8,6.5 -8.3,13 -13.7,10.6c-6,-2.6 -0.7,-22.8 -12.8,-29.5c-19.5,-10.8 -40.9,12.1 -45.8,30.6c-2.2,8.3 -4.2,19 -4.2,28.8c2.9,-0.1 6.5,-1.1 7.8,-6.8c0.9,-4 0.5,-31.1 18.7,-43.3c11.4,-7.6 25.2,-6.1 25.2,12.3c0,15.8 4.8,20.6 12.7,21.6c1.3,0.2 -1.4,11.9 3.7,12.8c4.5,0.8 5.7,-9.5 7.1,-9.1c1.3,0.4 -0.5,11 4,11.2c4.1,0.2 4.2,-9.8 5.5,-9.8c1.6,0 1.8,13.1 7.3,12.5c5.6,-0.7 3.9,-13.3 5.5,-13.5c2.3,-0.4 1.7,11.6 6.3,11.5c5.6,-0.1 3.1,-13.2 5,-13.5c1.5,-0.2 1.4,11.5 6,10.9c4.8,-0.6 1.9,-12.6 4.2,-13.2c8.8,-2.1 12.6,-8.1 13.2,-22.5c0.6,-14.6 10.8,-21.5 23.1,-12.6c9.5,6.9 18,23.3 20.8,44.7c0.4,3.3 3.2,6.8 6.9,7c0.4,-11.3 -2.8,-26 -6.5,-34.3c-8,-18.2 -23.3,-33.3 -41.8,-25.8c-14.8,6 -6.4,27.9 -14.2,30.3c-5.3,1.6 -9.6,-2.9 -13.5,-10.8c1.6,15.9 -32.7,14.8 -30.5,-0.1z" fill="#000000" id="svg_127"/>
   <path d="m256.6,74.8c0.9,-1.7 4.6,-3.1 6.4,1.3c0.7,1.8 1.9,25 1.3,27.2c-0.9,3.5 -3.3,5.8 -5.8,6.5c-3.1,-6.5 -3.4,-32 -1.9,-35z" fill="#000000" id="svg_128"/>
   <path d="m265.2,106.7c-1.5,5.1 -3.8,7.4 -6.8,8.2c0.6,8.3 3.5,19.9 4.8,22.8c3.5,-0.8 4.4,-2.8 4.8,-7.1c0.5,-4.3 -1.4,-16.3 -2.8,-23.9z" fill="#000000" id="svg_129"/>
   <path d="m210.3,83.2c-2.5,7.7 -5.4,9.2 -9,9c-1,11 2.1,42 6.3,52.4c4.8,-0.9 6.3,-12.1 5.7,-14.6c-1,-3.9 -3.6,-35.8 -3,-46.8z" fill="#000000" id="svg_130"/>
   <path d="m215.4,138c-0.3,6.6 -2.8,11.4 -6.9,12.2c2.5,9 18.5,45.2 25.1,49.1c1.6,-2 1.1,-6.6 -1.3,-10.4c-3.6,-6 -15.3,-36.1 -16.9,-50.9z" fill="#000000" id="svg_131"/>
   <path d="m241.4,39.1c5.4,-2 2.6,-7.1 -4.6,-3.4c-10.3,5.3 -19.9,26.3 -19.9,46.4c4.1,0.3 8.5,-4 8.9,-8.3c1.5,-17 8.8,-32.2 15.6,-34.7z" fill="#000000" id="svg_132"/>
   <path d="m223.9,82.1c-2.2,5.3 -3.8,6.3 -7.8,6.3c-0.2,6.8 0.7,24.2 1.6,29.3c3.2,-0.3 5.2,-2.5 6.2,-5.2c1.5,-4.1 0.7,-23.2 0,-30.4z" fill="#000000" id="svg_133"/>
   <path d="m225.4,113.3c-0.7,8.4 -2,10.2 -7.8,10.1c2.2,17.9 17.9,59.6 25.4,67.4c2,-0.9 3.1,-8.5 1.3,-11.9c-5.5,-10.3 -17.5,-51.8 -18.9,-65.6z" fill="#000000" id="svg_134"/>
   <path d="m242.6,44.2c-7.4,7.3 -12.1,27.9 -11.4,37.6c4.6,-0.4 7.1,-2.8 7.2,-6.8c0.1,-7.2 4.6,-26.2 9.3,-28.1c5,-2 1.5,-9.2 -5.1,-2.7z" fill="#000000" id="svg_135"/>
   <path d="m237,81.8c-1.4,4 -2.9,6 -7.7,5.8c-0.4,6.2 0.9,25.8 1.8,29.7c3.5,0 5.6,-2.6 5.9,-6c0.4,-5.3 0.3,-19.7 0,-29.5z" fill="#000000" id="svg_136"/>
   <path d="m238,112.3c0.4,6.4 -2.7,9.3 -6.7,9.9c1.2,13.1 16.6,53.6 21.7,57.9c2.2,-3 2.5,-9 0.6,-13.5c-2.9,-6.7 -14.7,-40.4 -15.6,-54.3z" fill="#000000" id="svg_137"/>
   <path d="m245.7,61.3c-0.6,6.2 -0.3,10.5 -2.3,15.2c3,0.4 5.1,-1.7 6.7,-3.8c1.6,-2.2 2.7,-8.3 2.2,-12.5c-0.7,-5.3 -5.9,-6.6 -6.6,1.1z" fill="#000000" id="svg_138"/>
   <path d="m250.7,75.1c-0.7,4.9 -4.3,7.1 -7.4,7.1c-0.8,8.2 -0.2,23.6 0.5,29.5c3.3,-0.1 6.2,-4.1 6.8,-7.6c0.8,-4.4 0.6,-21.7 0.1,-29z" fill="#000000" id="svg_139"/>
   <path d="m252,109.6c-0.5,5.2 -3.8,8.2 -7.8,8.2c1.6,11.1 14.9,50.9 19.8,55.9c2.8,-2.5 2.3,-9.1 0.9,-12.4c-3.3,-7.7 -12.6,-39.9 -12.9,-51.7z" fill="#000000" id="svg_140"/>
   <path d="m332.7,74.8c-0.9,-1.7 -4.6,-3.1 -6.4,1.3c-0.7,1.8 -1.9,25 -1.3,27.2c0.9,3.5 3.3,5.8 5.8,6.5c3,-6.5 3.4,-32 1.9,-35z" fill="#000000" id="svg_141"/>
   <path d="m324.1,106.7c1.5,5.1 3.8,7.4 6.8,8.2c-0.6,8.3 -3.5,19.9 -4.8,22.8c-3.5,-0.8 -4.4,-2.8 -4.8,-7.1c-0.5,-4.3 1.3,-16.3 2.8,-23.9z" fill="#000000" id="svg_142"/>
   <path d="m378.9,83.2c2.5,7.7 5.4,9.2 9,9c1,11 -2.1,42 -6.3,52.4c-4.8,-0.9 -6.3,-12.1 -5.7,-14.6c1.1,-3.9 3.7,-35.8 3,-46.8z" fill="#000000" id="svg_143"/>
   <path d="m373.8,138c0.3,6.6 2.8,11.4 6.9,12.2c-2.5,9 -18.5,45.2 -25.1,49.1c-1.6,-2 -1.1,-6.6 1.3,-10.4c3.7,-6 15.3,-36.1 16.9,-50.9z" fill="#000000" id="svg_144"/>
   <path d="m347.9,39.1c-5.4,-2 -2.6,-7.1 4.6,-3.4c10.3,5.3 19.9,26.3 19.9,46.4c-4.1,0.3 -8.5,-4 -8.9,-8.3c-1.6,-17 -8.8,-32.2 -15.6,-34.7z" fill="#000000" id="svg_145"/>
   <path d="m365.3,82.1c2.2,5.3 3.8,6.3 7.8,6.3c0.2,6.8 -0.7,24.2 -1.6,29.3c-3.2,-0.3 -5.2,-2.5 -6.2,-5.2c-1.4,-4.1 -0.6,-23.2 0,-30.4z" fill="#000000" id="svg_146"/>
   <path d="m363.8,113.3c0.7,8.4 2,10.2 7.8,10.1c-2.2,17.9 -17.9,59.6 -25.4,67.4c-2,-0.9 -3.1,-8.5 -1.3,-11.9c5.5,-10.3 17.5,-51.8 18.9,-65.6z" fill="#000000" id="svg_147"/>
   <path d="m346.7,44.2c7.4,7.3 12.1,27.9 11.4,37.6c-4.6,-0.4 -7.1,-2.8 -7.2,-6.8c-0.1,-7.2 -4.6,-26.2 -9.3,-28.1c-5.1,-2 -1.5,-9.2 5.1,-2.7z" fill="#000000" id="svg_148"/>
   <path d="m352.2,81.8c1.4,4 2.9,6 7.7,5.8c0.4,6.2 -0.9,25.8 -1.8,29.7c-3.5,0 -5.6,-2.6 -5.9,-6c-0.4,-5.3 -0.3,-19.7 0,-29.5z" fill="#000000" id="svg_149"/>
   <path d="m351.2,112.3c-0.4,6.4 2.7,9.3 6.7,9.9c-1.2,13.1 -16.6,53.6 -21.7,57.9c-2.2,-3 -2.5,-9 -0.6,-13.5c2.9,-6.7 14.7,-40.4 15.6,-54.3z" fill="#000000" id="svg_150"/>
   <path d="m343.6,61.3c0.6,6.2 0.3,10.5 2.3,15.2c-3,0.4 -5.1,-1.7 -6.7,-3.8c-1.6,-2.2 -2.7,-8.3 -2.2,-12.5c0.6,-5.3 5.9,-6.6 6.6,1.1z" fill="#000000" id="svg_151"/>
   <path d="m338.5,75.1c0.7,4.9 4.3,7.1 7.4,7.1c0.8,8.2 0.2,23.6 -0.5,29.5c-3.3,-0.1 -6.2,-4.1 -6.8,-7.6c-0.8,-4.4 -0.6,-21.7 -0.1,-29z" fill="#000000" id="svg_152"/>
   <path d="m337.2,109.6c0.5,5.2 3.8,8.2 7.8,8.2c-1.6,11.1 -14.9,50.9 -19.8,55.9c-2.8,-2.5 -2.3,-9.1 -0.9,-12.4c3.4,-7.7 12.6,-39.9 12.9,-51.7z" fill="#000000" id="svg_153"/>
   <path d="m291,240c1.9,2.5 4.7,2.3 6.6,0.3c3,-3.1 -1,-14.7 -1.7,-14.7c-0.3,0 -1.3,4.3 -1.6,4.3c-0.2,0 -0.9,-4.3 -1.3,-4.3c-0.6,0 -4.8,10.6 -2,14.4z" fill="#000000" id="svg_154"/>
   <path d="m287.3,231.9c-2.6,0.6 -4.6,-1.1 -4.4,-3.6c0.4,-5.2 6.7,-8.8 7.1,-8.5c0.1,0.1 -1.4,3.2 -1.1,3.4c0.3,0.2 2.9,-2.1 3.1,-2.1c0.5,-0.1 -1.2,9.9 -4.7,10.8z" fill="#000000" id="svg_155"/>
   <path d="m281.4,225.3c-2,0.5 -3.5,-1.4 -2.9,-3c1,-2.8 7.9,-5.1 7.9,-5.1s-2.2,7.4 -5,8.1z" fill="#000000" id="svg_156"/>
   <path d="m301.1,231.9c2.6,0.6 4.6,-1.1 4.4,-3.6c-0.4,-5.2 -6.7,-8.8 -7.1,-8.5c-0.1,0.1 1.4,3.2 1.1,3.4c-0.3,0.2 -2.9,-2.1 -3.1,-2.1c-0.5,-0.1 1.2,9.9 4.7,10.8z" fill="#000000" id="svg_157"/>
   <path d="m307,225.3c2,0.5 3.5,-1.4 2.9,-3c-1,-2.8 -7.9,-5.1 -7.9,-5.1s2.3,7.4 5,8.1z" fill="#000000" id="svg_158"/>
  </g>
  <path class="st2" d="m309,705.8c-5.6,1.1 -10.7,3.5 -14.7,6.8c-4.5,-3.7 -8.5,-6.1 -17.3,-7.1c-18.2,-2.1 -32.6,5.5 -32.6,18.5c0,12.3 9.5,15.5 16.8,15.5c8.3,0 10.9,-4.3 10.9,-8.2c0,-4 -3.2,-7.2 -7.2,-7.2s-7.2,3.2 -7.2,7.2c0,1.1 0.2,2 0.6,3c-10.5,-1 -11.6,-20.4 4.7,-23.2c9.4,-1.6 21.3,-0.2 27.3,4.9c-12.1,8 -16,24.4 -9,33.2c6.2,7.7 19.6,8 25.7,0c8.6,-11.4 -0.5,-27.5 -8.5,-33.1c4.4,-4.2 19.9,-8.2 28.7,-4.9c14.8,5.6 13.4,21.7 3,22.5c0.3,-0.7 0.4,-1.5 0.4,-2.4c0,-4 -3.2,-7.2 -7.2,-7.2c-4,0 -7.2,3.2 -7.2,7.2s2.6,7.7 12.3,7.7c10.5,0 15.3,-5.7 15.1,-15.9c-0.3,-12 -16.6,-20.8 -34.6,-17.3zm-4.2,32.2c0,6.4 -3.3,10.9 -10.9,10.9c-6.1,0 -10,-3.8 -10,-11.7c0,-8.7 10.3,-17.5 10.3,-17.5s10.6,8.4 10.6,18.3z" id="Decoracion"/>
  <g id="Pancarta">
   <path class="st5" d="m487,680.3c-5,-6.8 -13.6,-13.4 -23.8,-13.4c-7.7,0 -15.8,4.6 -15.8,11.8c0,9.3 4.1,13.1 11.1,13.1c11.1,0 19.4,-6.7 28.4,-11.2l0,-0.3l0.1,0z" id="svg_159"/>
   <path class="st5" d="m127.1,692.1c9.9,0 15.1,-5.2 15.1,-12.6c0,-6.5 -8.9,-12.6 -15.4,-12.6c-11.9,0 -20.9,8 -25.9,13.6l0,0c11.1,4.6 20.9,11.6 26.2,11.6z" id="svg_160"/>
   <path class="st5" d="m502.8,676.6c-17.4,0 -27.5,15.3 -44.2,15.3c-1,0 -1.8,-0.1 -2.7,-0.2l0,5.3c-0.3,-0.1 -0.5,-0.2 -0.8,-0.3c-0.4,-0.2 -0.8,-0.3 -1.3,-0.5c-0.4,-0.2 -0.9,-0.3 -1.3,-0.5c-0.4,-0.2 -0.9,-0.3 -1.3,-0.5c-0.3,-0.1 -0.5,-0.2 -0.8,-0.3c-1.1,-0.4 -2.3,-0.9 -3.4,-1.4c-0.2,-0.1 -0.5,-0.2 -0.7,-0.3c-0.6,-0.3 -1.3,-0.5 -1.9,-0.8c-0.2,-0.1 -0.4,-0.2 -0.6,-0.2c-0.7,-0.3 -1.4,-0.6 -2.1,-0.9c-0.1,0 -0.2,-0.1 -0.3,-0.1c-40.1,-16.9 -89,-43.6 -146.7,-43.6c-58,0 -111.1,29.5 -152.5,46.2c-0.2,0.1 -0.3,0.1 -0.5,0.2c-0.7,0.3 -1.4,0.6 -2.1,0.8c-0.3,0.1 -0.6,0.2 -0.9,0.4c-0.6,0.2 -1.3,0.5 -1.9,0.7c-0.4,0.1 -0.8,0.3 -1.1,0.4c-0.3,0.1 -0.5,0.2 -0.8,0.3l0,-5.8c-3,0.9 -4.6,1.3 -7.6,1.3c-7.9,0 -25,-15.4 -42.8,-15.4c-6.5,0 -15.7,5.8 -15.7,13.4l0,39.5c0,9 11.2,21 32.2,21c0.3,0 0.5,0 0.8,0l0,0c0,0 0.1,0 0.1,0c0.9,0 1.8,0 2.7,-0.1c0.7,0 1.4,-0.1 2.1,-0.1c0.1,0 0.3,0 0.4,0c35.2,-2.8 75.1,-29.8 122.7,-45.5l0,0c3.7,-1.2 7.5,-2.4 11.3,-3.4c0.1,0 0.2,0 0.2,-0.1c1.1,-0.3 2.3,-0.6 3.4,-0.9c0.2,-0.1 0.5,-0.1 0.7,-0.2c1,-0.3 2,-0.5 3,-0.8c0.3,-0.1 0.6,-0.1 0.9,-0.2c0.9,-0.2 1.9,-0.5 2.9,-0.7c0.3,-0.1 0.6,-0.1 1,-0.2c1,-0.2 1.9,-0.4 2.9,-0.6c0.3,-0.1 0.6,-0.1 0.9,-0.2c1.1,-0.2 2.2,-0.4 3.3,-0.6c0.2,0 0.3,-0.1 0.5,-0.1c2.6,-0.5 5.2,-0.9 7.8,-1.3c0.3,0 0.7,-0.1 1,-0.1c0.9,-0.1 1.9,-0.3 2.8,-0.4c0.5,-0.1 0.9,-0.1 1.4,-0.2c0.8,-0.1 1.7,-0.2 2.5,-0.3c0.5,0 1,-0.1 1.5,-0.1c0.8,-0.1 1.6,-0.1 2.4,-0.2c0.5,0 1,-0.1 1.5,-0.1c0.8,-0.1 1.7,-0.1 2.5,-0.2c0.5,0 1,-0.1 1.5,-0.1c0.9,0 1.8,-0.1 2.7,-0.1c0.4,0 0.9,0 1.3,0c1.3,0 2.7,-0.1 4,-0.1c1.2,0 2.5,0 3.7,0c0.4,0 0.8,0 1.2,0c0.9,0 1.7,0.1 2.6,0.1c0.4,0 0.9,0 1.3,0.1c0.8,0 1.7,0.1 2.5,0.2c0.4,0 0.8,0.1 1.2,0.1c1,0.1 2,0.2 2.9,0.3c0.2,0 0.5,0 0.7,0.1c1.2,0.1 2.5,0.3 3.7,0.4c0.2,0 0.4,0 0.6,0.1c1,0.1 2.1,0.3 3.1,0.4c0.3,0 0.7,0.1 1,0.1c0.9,0.1 1.8,0.3 2.8,0.4c0.3,0.1 0.7,0.1 1,0.2c1,0.2 2,0.3 3,0.5c0.2,0 0.4,0.1 0.6,0.1c2.5,0.5 5,1 7.5,1.6c0.1,0 0.2,0 0.3,0.1c1.1,0.3 2.2,0.5 3.4,0.8c0.2,0 0.4,0.1 0.6,0.1c1.1,0.3 2.2,0.6 3.3,0.8c0.1,0 0.2,0.1 0.4,0.1c5,1.3 10,2.8 14.9,4.4c36.7,12 70.2,30.7 99.6,39.9l0,0c0,0 0.1,0 0.1,0c1.2,0.4 2.4,0.7 3.6,1.1c0.9,0.2 1.7,0.5 2.5,0.7c0.3,0.1 0.6,0.2 0.9,0.2c8.4,2.2 16.3,3.6 24,3.6c23.5,0 32.9,-12.5 32.9,-19.8l0,-40.7c0.4,-6.8 -7.4,-13.1 -16.8,-13.1z" id="svg_161"/>
   <path class="st6" d="m101.7,680.5c5.1,-5.6 13.7,-13.6 25.6,-13.6c6.5,0 15.1,6.1 15.1,12.6c0,7.4 -5,12.6 -14.9,12.6c-7.9,0 -24.7,-15.4 -42.5,-15.4c-6.5,0 -15.4,5.8 -15.4,13.4l0,39.5c0,9 11,21 32,21c51.2,0 112.1,-56.9 192.6,-56.9c76.3,0 142.8,56.6 193.3,56.6c23.5,0 33.1,-12.5 33.1,-19.8l0,-40.7c0,-7 -8,-13.2 -17.4,-13.2c-17.4,0 -27.6,15.3 -44.3,15.3c-7.1,0 -11.3,-3.8 -11.3,-13.1c0,-7.2 8.2,-11.8 15.9,-11.8c10.2,0 18.8,6.4 24,13.2" id="svg_162"/>
   <path class="st6" d="m69.5,694c0,0 10.5,11 29.5,11c43.3,0 114.7,-57.5 195.8,-57.5c84.3,0 149.8,57.2 196.7,57.2c20.5,0 28.8,-11.3 28.8,-11.3" id="svg_163"/>
  </g>
  <g id="Libertad">
   <path d="m275.2,214.9c0,0 1.4,-17.8 -15.2,-16.8c-11.5,0.7 -23.6,12.4 -53,13.2c-14.9,0.4 -18.7,-6.6 -18.7,-6.6s-1.2,23.7 19.4,25c21,1.4 39,-5.9 45.1,-9.1c14.2,-7.5 22.4,-5.7 22.4,-5.7z" id="svg_164"/>
   <g id="svg_165">
    <polygon class="st5" id="svg_166" points="240.8,208.3 248.8,205.9 248.8,208.3 246.7,208.6 246.7,218.1 243.2,219.2 243.2,209.6 240.8,210.7       "/>
    <polygon class="st5" id="svg_167" points="224.4,212.5 230.8,211.2 230.8,213.3 227.6,213.6 227.6,216.2 230.8,215.5 230.8,217.6 227.6,217.8     227.6,221 231.1,220.2 231.1,222.3 224.2,223.7 224.2,212.5   "/>
    <path class="st5" d="m250.4,205.4l-2.4,12.7l2.6,-1.1l0.3,-2.1l2.4,-1.1l0.3,1.6l3.4,-1.1l-2.6,-10.6l-4,1.7zm1,7.1l0.5,-6.1l1.1,5.6l-1.6,0.5z" id="svg_168"/>
    <rect class="st5" height="10.8" id="svg_169" width="3.4" x="209.1" y="213.9"/>
    <path class="st5" d="m260.4,202.5l-3.4,0.8l0,11.1l3.4,-1.1c4,-1.3 5.6,-3.2 5.6,-6.9c0,-3.1 -2.1,-4.7 -5.6,-3.9zm-0.4,9.3l0,-7.9c2,0 2.1,0 2.1,3.4c0,2.9 -0.1,3.7 -2.1,4.5z" id="svg_170"/>
    <path class="st5" d="m239.3,215.5c0.8,-0.3 1.6,-1.6 1.6,-2.6c0,-2.1 -1.9,-3.8 -4.5,-3l-3.5,1.2l0.2,0l0,11.3l3,-1.1l0,-4.5l2.2,3.7l3.7,-1.1l-2.7,-3.9zm-3.3,0l0,-4c1,-0.5 1.3,0.5 1.3,1.6c0,1.3 -0.3,1.8 -1.3,2.4z" id="svg_171"/>
    <path class="st5" d="m220.5,218.6c1.3,0 2.4,-1.3 2.4,-2.6c0,-2.1 -1.7,-2.6 -4.3,-2.4l-3.5,0.3l0,11.1l4.3,-0.3c2.6,-0.3 3.9,-1.6 3.9,-3.7s-1.5,-2.4 -2.8,-2.4zm-2.5,5.1l0,-4c1,0 1.6,0.8 1.6,2.1s-0.6,2.1 -1.6,1.9zm0,-5.1l0,-3.4c1,0 1.6,0.5 1.6,1.6c0,1 -0.6,1.6 -1.6,1.8z" id="svg_172"/>
    <path class="st5" d="m201.7,213.3l3.4,0.3l0,9.3l2.6,0l0,2.1c-2.1,0 -4.8,-0.8 -6.1,-1.3l0,-10.4l0.1,0z" id="svg_173"/>
   </g>
  </g>
  <g id="Y">
   <path d="m305.8,214.4c-4.1,-1.4 -15.4,-1.7 -21.7,0c-3.3,-2.6 -6.4,-18.6 1.4,-21.3c6.4,-2.2 11,-2.3 18.8,0.2c6.7,2.1 5.3,15.1 1.5,21.1z" id="svg_174"/>
   <polygon class="st5" id="svg_175" points="297.3,196.6 299.5,196.6 296.8,204.1 296.8,207.9 293.2,207.9 293.2,204.1 290.5,196.6 294,196.6    295.7,201.9  "/>
  </g>
  <g id="Orden">
   <path d="m313.4,214.9c0,0 -1.4,-17.8 15.2,-16.8c11.5,0.7 23.6,12.4 53,13.2c14.9,0.4 18.7,-6.6 18.7,-6.6s1.2,23.7 -19.4,25c-21,1.4 -39,-5.9 -45.1,-9.1c-14.2,-7.5 -22.4,-5.7 -22.4,-5.7z" id="svg_176"/>
   <g id="svg_177">
    <polygon class="st5" id="svg_178" points="362,223.2 355.1,221.6 355.1,210.4 361.8,212 361.8,214.1 358.6,213.1 358.6,216.3 361.2,216.5     361.2,218.7 358.6,217.9 358.6,220.5 362,221.3   "/>
    <polygon class="st5" id="svg_179" points="373.2,224.8 369.2,224.5 366,215.7 366.3,224.3 364.2,224 364.2,212.8 368.7,213.6 371.4,222.1     371.1,213.9 373.2,213.9   "/>
    <path class="st5" d="m348.6,208l-3.6,-1.3l0,12l3.3,1.1c2.7,0.5 5.6,-0.5 5.9,-4.3c0,-3.5 -1.6,-6.2 -5.6,-7.5zm-0.6,9.9l0,-8.3c1,0.5 2.4,1.3 2.4,5.1c0,2.9 -1.4,3.4 -2.4,3.2z" id="svg_180"/>
    <path class="st5" d="m341,211.7c1.3,-0.3 2.1,-1.3 2.1,-2.7c0,-2.1 -1.2,-3.5 -4.7,-4.5l-3.4,-1.1l0,11.7l3,1.1l0,-4.5l1.7,5.1l3.8,1.3l-2.5,-6.4zm-1.4,-2.6c0,1.3 -0.6,1.9 -1.6,1.6l0,-4.5c1,0.5 1.9,1.5 1.6,2.9z" id="svg_181"/>
    <path class="st5" d="m328.1,201.3c-2.7,-0.3 -4.8,1.9 -4.8,5.6c0,2.9 1.3,5.3 4.5,6.1c2.7,0.8 5.1,-1.1 5.1,-4.5c0,-3.4 -1,-6.4 -4.8,-7.2zm0,10.7c-1.3,-0.5 -1.3,-2.4 -1.3,-4.5c0,-2.9 0,-4.8 1.3,-4.5c1.3,0.3 1.3,2.7 1.3,5.1s0.1,4.2 -1.3,3.9z" id="svg_182"/>
   </g>
  </g>
  <g id="Inter_Aulas_Academiae_Quaere_Verum">
   <path d="m206.9,696.1c0,2.2 -2.4,2.7 -5.1,2.2l0.8,3.8c4,1.3 8.9,-1.3 8.9,-6.2c0,-6.2 -6.5,-7.3 -6.5,-10.8c0,-2.7 2.4,-3.2 5.1,-2.4l-0.8,-3.8c-4.8,-0.8 -8.6,2.2 -8.6,6.2c0.1,6.1 6.2,6.9 6.2,11z" id="svg_183"/>
   <path d="m234.1,687.7l3.8,-1.1l0.8,4l3.5,-1.1l-3.5,-21.3l-5.9,1.6l-3.8,23.1l4.6,-1.3l0.5,-3.9zm1.1,-10.2l0.3,-4.6l0.8,-0.3l0.3,4.6l0.8,6.2l-2.7,0.8l0.5,-6.7z" id="svg_184"/>
   <path d="m219.9,688.3c1.6,0 2.7,-1.1 2.7,-2.7c0,-1.6 -1.1,-2.7 -2.7,-2.7s-2.7,1.1 -2.7,2.7c0,1.6 1,2.7 2.7,2.7z" id="svg_185"/>
   <path d="m120.1,732.4c-1.3,0.8 -3.8,1.3 -4.8,1.6l0,-7.3l4,-0.8l0,-3.5l-4,1.3l0,-6.2l4.8,-0.8l0,-3.5c-2.7,0.8 -5.6,1.3 -8.9,2.2l0,22.1c2.4,-0.3 6.5,-1.3 8.9,-2.2l0,-2.9z" id="svg_186"/>
   <path d="m191.9,703.1l4.6,-1.6l0.8,4l3.5,-1.3l-4.8,-20.7l-5.6,2.2l-2.7,24.2l4,-1.6l0.2,-5.2zm1.1,-10l0,-5.1l0.8,-0.3l0.8,5.1l1.3,5.1l-3.5,1.3l0.6,-6.1z" id="svg_187"/>
   <polygon id="svg_188" points="93.4,723.8 94.8,732.1 94.2,732.1 92.9,725.9 89.9,717.6 86.4,717.3 86.4,737.5 89.9,738.1 89.9,731.6 88.6,723.3    89.4,723.3 90.7,729.4 93.4,738.9 96.9,739.1 96.9,717.6 93.4,717.6  "/>
   <path d="m125.7,725.1l1.3,-0.3l0.8,2.7l3.2,4.8l4,-1.3l-5.9,-7.5c2.2,-1.3 3.5,-3.8 3.5,-6.5c0,-3.5 -2.7,-5.9 -7.5,-4.6l-2.7,0.8l0,22.1l3.5,-1.1l0,-9.1l-0.2,0zm0,-9.9c2.2,-0.8 3.5,0.8 3.5,2.7c0,1.3 -0.8,3.5 -3.5,4l0,-6.7z" id="svg_189"/>
   <path d="m253.8,687.2l0,-3.2c-3.5,1.3 -6.5,-0.8 -6.5,-7c0,-5.6 1.6,-8.3 5.9,-8.3l0,-3.5c-5.6,-0.8 -9.7,4 -9.7,11.8c0,10.5 5.4,12.4 10.3,10.2z" id="svg_190"/>
   <path d="m141,720.8c1.6,0 2.7,-1.1 2.7,-2.7c0,-1.6 -1.1,-2.7 -2.7,-2.7s-2.7,1.1 -2.7,2.7c-0.2,1.7 0.9,2.7 2.7,2.7z" id="svg_191"/>
   <polygon id="svg_192" points="186,706.6 181.9,708.7 181.9,688.8 178.4,690.2 178.4,713.6 186,710.3  "/>
   <path d="m167.1,718.4c3.5,0 7.5,-3.5 7.5,-10.5l0,-16.4l-4,1.6l0,16.7c0,2.7 -1.3,4 -2.7,4c-0.8,0 -1.3,-0.8 -1.3,-2.2l0,-16.1l-3.5,1.3l0,16.7c0,2.8 1.3,4.9 4,4.9z" id="svg_193"/>
   <path d="m153.4,719l4,-1.6l0.8,4.8l3.5,-1.3l-3.5,-21.5l-6.2,2.7l-3.5,23.9l4,-1.6l0.9,-5.4zm1.4,-14.8l0.8,-0.3l0.8,5.1l0.8,4.8l-3.5,1.3l1.1,-10.9z" id="svg_194"/>
   <path d="m101.8,739.1l4,-0.3l0,-18.3c0.8,0 3.8,-0.3 3.8,-0.3l0,-3.8c-3.2,0.8 -8.9,1.3 -11.6,1.3l0,3.5l3.5,-0.3l0,18l0.3,0l0,0.2z" id="svg_195"/>
   <path d="m434.3,714.9c1.6,0 2.7,-1.1 2.7,-2.7c0,-1.6 -1.1,-2.7 -2.7,-2.7c-1.6,0 -2.7,1.1 -2.7,2.7c0,1.6 1.1,2.7 2.7,2.7z" id="svg_196"/>
   <polygon id="svg_197" points="426.5,717.1 420.8,715.2 420.8,708.2 425.7,710.1 425.7,706.6 420.8,704.7 420.8,699 426.5,701.5 426.5,698    417.3,693.7 417.3,717.3 426.5,720.8  "/>
   <polygon id="svg_198" points="450.7,730.8 454.2,709.8 450.7,708.2 448.5,720.8 448.3,726.8 447.2,726.2 447.2,720.3 445.3,706.3 441.5,704.4    444.5,728.4  "/>
   <path d="m407.6,704.4l1.3,0l0.3,2.2l2.7,8.3l4.8,2.2l-5.1,-13.5c2.2,-1.1 2.7,-4 2.7,-5.6c0,-3.5 -1.3,-6.2 -7,-8.3l-3.5,-1.3l0,23.6l3.5,1.3l0,-8.9l0.3,0zm0,-11c2.2,0.8 3.5,1.6 3.5,4.6c0,2.7 -2.2,3.8 -3.5,3.2l0,-7.8z" id="svg_199"/>
   <polygon id="svg_200" points="464.4,731.6 459,730 459,723.5 463.1,724.9 463.1,721.4 459,720.3 459,714.6 464.4,716.5 464.4,713 455.5,710.1    455.5,732.1 464.4,735.4  "/>
   <path d="m485.4,740.2c3.5,0 5.9,-2.7 5.9,-7.5l0,-14.8l-3.8,0l0,15.6c0,2.2 -1.3,2.7 -2.2,2.7c-1.3,0 -2.2,-1.1 -2.2,-3.5l0,-15.3l-4,-0.8l0,15.9c-0.2,5.6 2.8,7.7 6.3,7.7z" id="svg_201"/>
   <polygon id="svg_202" points="497.5,731.1 496.4,722.7 497,722.7 499.9,734.6 502.6,734 505,721.4 505.8,721.1 504.8,729.2 504.8,735.9    508.3,734.3 508.3,715.5 503.9,716.3 501.8,725.1 501.5,730 500.7,730 500.5,725.7 497.8,717.3 494,717.6 494,738.9 497.5,738.3     "/>
   <path d="m386.9,704.4l1.3,-4.8l4,1.6l0,5.1l9.7,4l0,-4l-5.6,-2.2l0,-6.1l4,1.6l0,-3.5l-4,-1.6l0,-5.6l5.6,2.4l0,-3.8l-12.1,-4.8l-6.2,20.4l3.3,1.3zm3.8,-13.4l1.1,-4.6l0.8,0.3l0,11l-3.2,-1.3l1.3,-5.4z" id="svg_203"/>
   <g id="svg_204">
    <path d="m470.1,729.4l1.3,0l0.3,1.6l2.4,6.5l4,1.1l-4,-10.5c1.3,-0.8 2.7,-3.2 2.7,-5.6c0,-4 -2.2,-7.3 -6.2,-8.3l-4,-1.1l0,22.6l3.5,0.8l0,-7.1zm0,-11c2.2,0 3.5,1.6 3.5,3.8c0,2.7 -1.3,4 -3.5,4l0,-7.8z" id="svg_205"/>
   </g>
   <path d="m79.7,734.6c1.1,0.8 2.2,1.1 4,1.6l0,-19.6l-4,-1.1l0,19.1z" id="svg_206"/>
   <polygon id="svg_207" points="293.3,678.9 288.5,679.1 288.5,672.1 292.8,672.1 292.8,668.9 288.5,669.2 288.5,663.3 293.3,663 293.3,659.5    285,659.8 285,682.6 293.3,682.4  "/>
   <polygon id="svg_208" points="300.3,675.1 299.5,665.4 300.3,665.4 301.6,672.1 303,677.8 305.9,677.8 307.3,672.1 308.6,666 309.2,666    308.6,675.6 308.6,682.9 312.1,683.4 312.1,660.8 307.8,660.6 305.1,668.9 304.3,674.3 304.1,674.3 303.8,668.9 300.8,659.8    296.8,659.5 296.8,682.4 300.3,682.4  "/>
   <path d="m259.7,681l3.8,-1.1l0.8,4.8l4,-0.8l-4,-21.5l-6.2,1.3l-2.7,22.9l3.8,-1.1l0.5,-4.5zm1.1,-15l0.8,0l1.3,10.5l-2.7,0.8l0.6,-11.3z" id="svg_209"/>
   <path d="m282.3,671.6c0,-8.3 -3.8,-11 -9.4,-10.5l-2.4,0.3l0,22.1l2.7,-0.3c4.8,-0.6 9.1,-3.3 9.1,-11.6zm-8.4,-7c2.7,-0.8 4.8,2.2 4.8,7.5c0,4 -2.2,7.5 -4.8,7.5l0,-15z" id="svg_210"/>
   <polygon id="svg_211" points="318.3,661.9 314.8,661.1 314.8,683.7 318.3,684  "/>
   <path d="m377.8,701.5c3.2,1.1 6.2,-1.3 6.2,-4.8l0,-16.4l-3.5,-1.1l0,16.7c0,1.3 -0.8,2.4 -2.2,2.2c-1.6,-0.3 -2.7,-2.2 -2.7,-4.8l0,-15.6l-3.5,-1.3l0,16.4c0.3,5.2 2.2,7.6 5.7,8.7z" id="svg_212"/>
   <path d="m363.2,695.8l0.8,0l6.2,2.2l0,-4l-2.7,-0.8l-2.2,0.8c2.7,-1.3 3.5,-4 3.5,-8.3c0,-8.3 -2.2,-13.2 -7,-13.2c-4,0 -6.2,4.8 -6.2,11c0.1,7.5 2.3,12.3 7.6,12.3zm-1,-19.6c2.4,0 3.2,3.8 3.2,8.1c0,4.8 -0.8,8.3 -2.7,8.3c-2.7,0 -3.5,-4 -3.5,-8.3c0,-5.2 0.6,-8.1 3,-8.1z" id="svg_213"/>
   <path d="m346,681.8c1.6,0 2.7,-1.1 2.7,-2.7c0,-1.6 -1.1,-2.7 -2.7,-2.7c-1.6,0 -2.7,1.1 -2.7,2.7c0,1.9 0.8,2.7 2.7,2.7z" id="svg_214"/>
   <path d="m324.8,680.5l3.8,0.8l0,4.6l8.9,2.2l0,-3.5l-5.6,-1.1l0,-6.7l4.8,1.1l0,-3.5l-4.8,-0.8l0,-5.6l5.6,1.3l0,-3.3c-2.7,-0.8 -8.3,-2.2 -11,-2.4l-7,20.7l3.8,0.8l1.5,-4.6zm2.9,-9.2l1.1,-4l0.3,0l-0.3,4l0,6.5l-3.2,-0.3l2.1,-6.2z" id="svg_215"/>
  </g>
  <g id="svg_216"/>
  <g id="svg_217"/>
  <g id="svg_218"/>
  <g id="svg_219"/>
  <g id="svg_220"/>
  <g id="svg_221"/>
  <g id="svg_222"/>
  <g id="svg_223"/>
  <g id="svg_224"/>
  <g id="svg_225"/>
  <g id="svg_226"/>
  <g id="svg_227"/>
  <g id="svg_228"/>
  <g id="svg_229"/>
  <g id="svg_230"/>
 </g>
</svg>
