<?xml version="1.0" standalone="no"?>
<!DOCTYPE svg PUBLIC "-//W3C//DTD SVG 20010904//EN"
 "http://www.w3.org/TR/2001/REC-SVG-20010904/DTD/svg10.dtd">
<svg version="1.0" xmlns="http://www.w3.org/2000/svg"
 width="256.000000pt" height="131.000000pt" viewBox="0 0 256.000000 131.000000"
 preserveAspectRatio="xMidYMid meet">

<g transform="translate(0.000000,131.000000) scale(0.100000,-0.100000)"
fill="#000000" stroke="none">
<path d="M0 655 l0 -655 1280 0 1280 0 0 655 0 655 -1280 0 -1280 0 0 -655z
m2520 0 l0 -625 -1242 2 -1243 3 -3 610 c-1 336 0 616 3 623 3 9 262 12 1245
12 l1240 0 0 -625z"/>
<path d="M1761 1111 c-13 -23 -289 -596 -357 -738 l-53 -113 30 -16 c17 -8 32
-14 34 -12 9 9 415 854 415 865 0 6 -13 16 -30 21 -25 9 -31 8 -39 -7z"/>
<path d="M837 681 c-59 -180 -107 -333 -107 -340 0 -6 17 -11 39 -11 l39 0 26
85 27 86 136 -3 136 -3 27 -80 27 -80 41 -3 c23 -2 42 0 42 5 0 4 -48 158
-107 341 l-107 332 -56 0 -56 0 -107 -329z m219 69 l52 -170 -109 0 c-60 0
-109 3 -109 6 0 17 105 343 109 338 3 -2 28 -81 57 -174z"/>
<path d="M388 803 l-188 -117 0 -45 0 -46 177 -110 c97 -60 182 -111 189 -113
11 -3 44 34 44 49 0 4 -74 53 -165 110 -91 56 -165 106 -165 110 0 4 66 48
148 98 202 124 188 111 168 149 -9 18 -18 32 -19 31 -1 0 -86 -52 -189 -116z"/>
<path d="M1996 888 c-9 -12 -16 -25 -16 -29 0 -3 76 -53 170 -110 93 -57 169
-106 169 -109 0 -3 -76 -52 -169 -109 -94 -57 -170 -106 -170 -108 0 -12 34
-53 44 -53 6 1 92 52 191 114 l180 113 0 43 0 43 -180 113 c-99 62 -185 113
-192 113 -6 1 -19 -9 -27 -21z"/>
</g>
</svg>
